<?xml version="1.0" encoding="utf-8" standalone="no"?>
<!DOCTYPE svg PUBLIC "-//W3C//DTD SVG 1.1//EN"
  "http://www.w3.org/Graphics/SVG/1.1/DTD/svg11.dtd">
<svg xmlns:xlink="http://www.w3.org/1999/xlink" width="460.8pt" height="345.6pt" viewBox="0 0 460.8 345.6" xmlns="http://www.w3.org/2000/svg" version="1.1">
 <metadata>
  <rdf:RDF xmlns:dc="http://purl.org/dc/elements/1.1/" xmlns:cc="http://creativecommons.org/ns#" xmlns:rdf="http://www.w3.org/1999/02/22-rdf-syntax-ns#">
   <cc:Work>
    <dc:type rdf:resource="http://purl.org/dc/dcmitype/StillImage"/>
    <dc:date>2025-03-10T18:57:14.209143</dc:date>
    <dc:format>image/svg+xml</dc:format>
    <dc:creator>
     <cc:Agent>
      <dc:title>Matplotlib v3.7.1, https://matplotlib.org/</dc:title>
     </cc:Agent>
    </dc:creator>
   </cc:Work>
  </rdf:RDF>
 </metadata>
 <defs>
  <style type="text/css">*{stroke-linejoin: round; stroke-linecap: butt}</style>
 </defs>
 <g id="figure_1">
  <g id="patch_1">
   <path d="M 0 345.6 
L 460.8 345.6 
L 460.8 0 
L 0 0 
z
" style="fill: #ffffff"/>
  </g>
  <g id="axes_1">
   <g id="patch_2">
    <path d="M 103.172362 307.584 
L 369.147638 307.584 
L 369.147638 41.472 
L 103.172362 41.472 
z
" style="fill: #ffffff"/>
   </g>
   <g id="matplotlib.axis_1">
    <g id="xtick_1">
     <g id="line2d_1">
      <defs>
       <path id="ma83b0c43e9" d="M 0 0 
L 0 3.5 
" style="stroke: #000000; stroke-width: 0.8"/>
      </defs>
      <g>
       <use xlink:href="#ma83b0c43e9" x="135.183857" y="307.584" style="stroke: #000000; stroke-width: 0.8"/>
      </g>
     </g>
     <g id="text_1">
      <!-- −1.0 -->
      <g transform="translate(123.042451 322.182437) scale(0.1 -0.1)">
       <defs>
        <path id="DejaVuSans-2212" d="M 678 2272 
L 4684 2272 
L 4684 1741 
L 678 1741 
L 678 2272 
z
" transform="scale(0.015625)"/>
        <path id="DejaVuSans-31" d="M 794 531 
L 1825 531 
L 1825 4091 
L 703 3866 
L 703 4441 
L 1819 4666 
L 2450 4666 
L 2450 531 
L 3481 531 
L 3481 0 
L 794 0 
L 794 531 
z
" transform="scale(0.015625)"/>
        <path id="DejaVuSans-2e" d="M 684 794 
L 1344 794 
L 1344 0 
L 684 0 
L 684 794 
z
" transform="scale(0.015625)"/>
        <path id="DejaVuSans-30" d="M 2034 4250 
Q 1547 4250 1301 3770 
Q 1056 3291 1056 2328 
Q 1056 1369 1301 889 
Q 1547 409 2034 409 
Q 2525 409 2770 889 
Q 3016 1369 3016 2328 
Q 3016 3291 2770 3770 
Q 2525 4250 2034 4250 
z
M 2034 4750 
Q 2819 4750 3233 4129 
Q 3647 3509 3647 2328 
Q 3647 1150 3233 529 
Q 2819 -91 2034 -91 
Q 1250 -91 836 529 
Q 422 1150 422 2328 
Q 422 3509 836 4129 
Q 1250 4750 2034 4750 
z
" transform="scale(0.015625)"/>
       </defs>
       <use xlink:href="#DejaVuSans-2212"/>
       <use xlink:href="#DejaVuSans-31" x="83.789062"/>
       <use xlink:href="#DejaVuSans-2e" x="147.412109"/>
       <use xlink:href="#DejaVuSans-30" x="179.199219"/>
      </g>
     </g>
    </g>
    <g id="xtick_2">
     <g id="line2d_2">
      <g>
       <use xlink:href="#ma83b0c43e9" x="185.609765" y="307.584" style="stroke: #000000; stroke-width: 0.8"/>
      </g>
     </g>
     <g id="text_2">
      <!-- −0.5 -->
      <g transform="translate(173.468359 322.182437) scale(0.1 -0.1)">
       <defs>
        <path id="DejaVuSans-35" d="M 691 4666 
L 3169 4666 
L 3169 4134 
L 1269 4134 
L 1269 2991 
Q 1406 3038 1543 3061 
Q 1681 3084 1819 3084 
Q 2600 3084 3056 2656 
Q 3513 2228 3513 1497 
Q 3513 744 3044 326 
Q 2575 -91 1722 -91 
Q 1428 -91 1123 -41 
Q 819 9 494 109 
L 494 744 
Q 775 591 1075 516 
Q 1375 441 1709 441 
Q 2250 441 2565 725 
Q 2881 1009 2881 1497 
Q 2881 1984 2565 2268 
Q 2250 2553 1709 2553 
Q 1456 2553 1204 2497 
Q 953 2441 691 2322 
L 691 4666 
z
" transform="scale(0.015625)"/>
       </defs>
       <use xlink:href="#DejaVuSans-2212"/>
       <use xlink:href="#DejaVuSans-30" x="83.789062"/>
       <use xlink:href="#DejaVuSans-2e" x="147.412109"/>
       <use xlink:href="#DejaVuSans-35" x="179.199219"/>
      </g>
     </g>
    </g>
    <g id="xtick_3">
     <g id="line2d_3">
      <g>
       <use xlink:href="#ma83b0c43e9" x="236.035673" y="307.584" style="stroke: #000000; stroke-width: 0.8"/>
      </g>
     </g>
     <g id="text_3">
      <!-- 0.0 -->
      <g transform="translate(228.084111 322.182437) scale(0.1 -0.1)">
       <use xlink:href="#DejaVuSans-30"/>
       <use xlink:href="#DejaVuSans-2e" x="63.623047"/>
       <use xlink:href="#DejaVuSans-30" x="95.410156"/>
      </g>
     </g>
    </g>
    <g id="xtick_4">
     <g id="line2d_4">
      <g>
       <use xlink:href="#ma83b0c43e9" x="286.461581" y="307.584" style="stroke: #000000; stroke-width: 0.8"/>
      </g>
     </g>
     <g id="text_4">
      <!-- 0.5 -->
      <g transform="translate(278.510019 322.182437) scale(0.1 -0.1)">
       <use xlink:href="#DejaVuSans-30"/>
       <use xlink:href="#DejaVuSans-2e" x="63.623047"/>
       <use xlink:href="#DejaVuSans-35" x="95.410156"/>
      </g>
     </g>
    </g>
    <g id="xtick_5">
     <g id="line2d_5">
      <g>
       <use xlink:href="#ma83b0c43e9" x="336.88749" y="307.584" style="stroke: #000000; stroke-width: 0.8"/>
      </g>
     </g>
     <g id="text_5">
      <!-- 1.0 -->
      <g transform="translate(328.935927 322.182437) scale(0.1 -0.1)">
       <use xlink:href="#DejaVuSans-31"/>
       <use xlink:href="#DejaVuSans-2e" x="63.623047"/>
       <use xlink:href="#DejaVuSans-30" x="95.410156"/>
      </g>
     </g>
    </g>
   </g>
   <g id="matplotlib.axis_2">
    <g id="ytick_1">
     <g id="line2d_6">
      <defs>
       <path id="mad39549ecf" d="M 0 0 
L -3.5 0 
" style="stroke: #000000; stroke-width: 0.8"/>
      </defs>
      <g>
       <use xlink:href="#mad39549ecf" x="103.172362" y="275.379816" style="stroke: #000000; stroke-width: 0.8"/>
      </g>
     </g>
     <g id="text_6">
      <!-- −1.0 -->
      <g transform="translate(71.88955 279.179035) scale(0.1 -0.1)">
       <use xlink:href="#DejaVuSans-2212"/>
       <use xlink:href="#DejaVuSans-31" x="83.789062"/>
       <use xlink:href="#DejaVuSans-2e" x="147.412109"/>
       <use xlink:href="#DejaVuSans-30" x="179.199219"/>
      </g>
     </g>
    </g>
    <g id="ytick_2">
     <g id="line2d_7">
      <g>
       <use xlink:href="#mad39549ecf" x="103.172362" y="224.953908" style="stroke: #000000; stroke-width: 0.8"/>
      </g>
     </g>
     <g id="text_7">
      <!-- −0.5 -->
      <g transform="translate(71.88955 228.753127) scale(0.1 -0.1)">
       <use xlink:href="#DejaVuSans-2212"/>
       <use xlink:href="#DejaVuSans-30" x="83.789062"/>
       <use xlink:href="#DejaVuSans-2e" x="147.412109"/>
       <use xlink:href="#DejaVuSans-35" x="179.199219"/>
      </g>
     </g>
    </g>
    <g id="ytick_3">
     <g id="line2d_8">
      <g>
       <use xlink:href="#mad39549ecf" x="103.172362" y="174.528" style="stroke: #000000; stroke-width: 0.8"/>
      </g>
     </g>
     <g id="text_8">
      <!-- 0.0 -->
      <g transform="translate(80.269237 178.327219) scale(0.1 -0.1)">
       <use xlink:href="#DejaVuSans-30"/>
       <use xlink:href="#DejaVuSans-2e" x="63.623047"/>
       <use xlink:href="#DejaVuSans-30" x="95.410156"/>
      </g>
     </g>
    </g>
    <g id="ytick_4">
     <g id="line2d_9">
      <g>
       <use xlink:href="#mad39549ecf" x="103.172362" y="124.102092" style="stroke: #000000; stroke-width: 0.8"/>
      </g>
     </g>
     <g id="text_9">
      <!-- 0.5 -->
      <g transform="translate(80.269237 127.901311) scale(0.1 -0.1)">
       <use xlink:href="#DejaVuSans-30"/>
       <use xlink:href="#DejaVuSans-2e" x="63.623047"/>
       <use xlink:href="#DejaVuSans-35" x="95.410156"/>
      </g>
     </g>
    </g>
    <g id="ytick_5">
     <g id="line2d_10">
      <g>
       <use xlink:href="#mad39549ecf" x="103.172362" y="73.676184" style="stroke: #000000; stroke-width: 0.8"/>
      </g>
     </g>
     <g id="text_10">
      <!-- 1.0 -->
      <g transform="translate(80.269237 77.475403) scale(0.1 -0.1)">
       <use xlink:href="#DejaVuSans-31"/>
       <use xlink:href="#DejaVuSans-2e" x="63.623047"/>
       <use xlink:href="#DejaVuSans-30" x="95.410156"/>
      </g>
     </g>
    </g>
   </g>
   <g id="line2d_11">
    <path d="M 135.183857 174.528 
L 336.88749 174.528 
" clip-path="url(#pfa750485a8)" style="fill: none; stroke: #000000; stroke-opacity: 0.5; stroke-width: 1.5; stroke-linecap: square"/>
   </g>
   <g id="line2d_12">
    <path d="M 236.035673 275.379816 
L 236.035673 73.676184 
" clip-path="url(#pfa750485a8)" style="fill: none; stroke: #000000; stroke-opacity: 0.5; stroke-width: 1.5; stroke-linecap: square"/>
   </g>
   <g id="line2d_13">
    <path d="M 160.396811 241.235206 
L 160.396811 219.911317 
" clip-path="url(#pfa750485a8)" style="fill: none; stroke: #ff0000; stroke-width: 1.5; stroke-linecap: square"/>
   </g>
   <g id="line2d_14">
    <path d="M 160.396811 219.911317 
L 145.972122 219.911317 
" clip-path="url(#pfa750485a8)" style="fill: none; stroke: #ff0000; stroke-width: 1.5; stroke-linecap: square"/>
   </g>
   <g id="line2d_15">
    <path d="M 145.972122 219.911317 
L 146.210426 220.381175 
L 146.45118 220.849781 
L 146.69438 221.317123 
L 146.940017 221.783189 
L 147.188086 222.247965 
L 147.43858 222.711439 
L 147.691491 223.173597 
L 147.946812 223.634429 
L 148.204538 224.09392 
L 148.46466 224.552059 
L 148.727173 225.008833 
L 148.992067 225.464229 
L 149.259337 225.918235 
L 149.528975 226.370839 
L 149.800974 226.822028 
L 150.075325 227.27179 
L 150.352023 227.720112 
L 150.631059 228.166984 
L 150.912425 228.612391 
L 151.196114 229.056323 
L 151.482118 229.498766 
L 151.77043 229.93971 
L 152.061041 230.379141 
L 152.353944 230.817048 
L 152.64913 231.25342 
L 152.946592 231.688243 
L 153.246321 232.121506 
L 153.54831 232.553198 
L 153.852549 232.983306 
L 154.159031 233.41182 
L 154.467747 233.838726 
L 154.77869 234.264014 
L 155.091849 234.687672 
L 155.407218 235.109688 
L 155.724786 235.530051 
L 156.044546 235.948749 
L 156.366489 236.365771 
L 156.690607 236.781106 
L 157.016889 237.194741 
L 157.345328 237.606667 
L 157.675914 238.016872 
L 158.008638 238.425344 
L 158.343491 238.832072 
L 158.680465 239.237045 
L 159.01955 239.640253 
L 159.360736 240.041684 
L 159.704015 240.441327 
L 160.049376 240.839171 
L 160.396811 241.235206 
" clip-path="url(#pfa750485a8)" style="fill: none; stroke: #ff0000; stroke-width: 1.5; stroke-linecap: square"/>
   </g>
   <g id="line2d_16">
    <path d="M 145.972122 219.911317 
L 160.396811 219.911317 
" clip-path="url(#pfa750485a8)" style="fill: none; stroke: #ff0000; stroke-width: 1.5; stroke-linecap: square"/>
   </g>
   <g id="line2d_17">
    <path d="M 160.396811 219.911317 
L 160.396811 189.655772 
" clip-path="url(#pfa750485a8)" style="fill: none; stroke: #ff0000; stroke-width: 1.5; stroke-linecap: square"/>
   </g>
   <g id="line2d_18">
    <path d="M 160.396811 189.655772 
L 136.324895 189.655772 
" clip-path="url(#pfa750485a8)" style="fill: none; stroke: #ff0000; stroke-width: 1.5; stroke-linecap: square"/>
   </g>
   <g id="line2d_19">
    <path d="M 136.324895 189.655772 
L 136.42459 190.298887 
L 136.528433 190.941344 
L 136.636419 191.583119 
L 136.748545 192.224183 
L 136.864805 192.86451 
L 136.985194 193.504073 
L 137.109708 194.142846 
L 137.238342 194.780803 
L 137.371089 195.417916 
L 137.507945 196.05416 
L 137.648904 196.689507 
L 137.79396 197.323931 
L 137.943106 197.957406 
L 138.096338 198.589905 
L 138.253647 199.221402 
L 138.415028 199.851871 
L 138.580475 200.481286 
L 138.749979 201.10962 
L 138.923535 201.736846 
L 139.101134 202.36294 
L 139.28277 202.987875 
L 139.468435 203.611625 
L 139.658121 204.234164 
L 139.85182 204.855465 
L 140.049525 205.475504 
L 140.251226 206.094254 
L 140.456916 206.71169 
L 140.666586 207.327785 
L 140.880227 207.942515 
L 141.097831 208.555853 
L 141.319388 209.167775 
L 141.544889 209.778253 
L 141.774324 210.387264 
L 142.007685 210.994782 
L 142.244961 211.600781 
L 142.486143 212.205237 
L 142.731221 212.808124 
L 142.980183 213.409416 
L 143.233021 214.00909 
L 143.489723 214.607119 
L 143.750278 215.20348 
L 144.014677 215.798146 
L 144.282907 216.391095 
L 144.554958 216.9823 
L 144.830819 217.571737 
L 145.110477 218.159382 
L 145.393922 218.745209 
L 145.681141 219.329196 
L 145.972122 219.911317 
" clip-path="url(#pfa750485a8)" style="fill: none; stroke: #ff0000; stroke-width: 1.5; stroke-linecap: square"/>
   </g>
   <g id="line2d_20">
    <path d="M 136.324895 189.655772 
L 160.396811 189.655772 
" clip-path="url(#pfa750485a8)" style="fill: none; stroke: #ff0000; stroke-width: 1.5; stroke-linecap: square"/>
   </g>
   <g id="line2d_21">
    <path d="M 160.396811 189.655772 
L 160.396811 159.400228 
" clip-path="url(#pfa750485a8)" style="fill: none; stroke: #ff0000; stroke-width: 1.5; stroke-linecap: square"/>
   </g>
   <g id="line2d_22">
    <path d="M 160.396811 159.400228 
L 136.324895 159.400228 
" clip-path="url(#pfa750485a8)" style="fill: none; stroke: #ff0000; stroke-width: 1.5; stroke-linecap: square"/>
   </g>
   <g id="line2d_23">
    <path d="M 136.324895 159.400228 
L 136.233809 160.013296 
L 136.146492 160.626913 
L 136.062948 161.241055 
L 135.983179 161.855699 
L 135.90719 162.470822 
L 135.834982 163.086399 
L 135.766559 163.702409 
L 135.701922 164.318828 
L 135.641076 164.935632 
L 135.584021 165.552799 
L 135.53076 166.170305 
L 135.481294 166.788126 
L 135.435627 167.40624 
L 135.393759 168.024623 
L 135.355693 168.643251 
L 135.321429 169.262101 
L 135.290968 169.881151 
L 135.264313 170.500376 
L 135.241464 171.119753 
L 135.222422 171.739258 
L 135.207187 172.35887 
L 135.195761 172.978563 
L 135.188143 173.598314 
L 135.184334 174.218101 
L 135.184334 174.837899 
L 135.188143 175.457686 
L 135.195761 176.077437 
L 135.207187 176.69713 
L 135.222422 177.316742 
L 135.241464 177.936247 
L 135.264313 178.555624 
L 135.290968 179.174849 
L 135.321429 179.793899 
L 135.355693 180.412749 
L 135.393759 181.031377 
L 135.435627 181.64976 
L 135.481294 182.267874 
L 135.53076 182.885695 
L 135.584021 183.503201 
L 135.641076 184.120368 
L 135.701922 184.737172 
L 135.766559 185.353591 
L 135.834982 185.969601 
L 135.90719 186.585178 
L 135.983179 187.200301 
L 136.062948 187.814945 
L 136.146492 188.429087 
L 136.233809 189.042704 
L 136.324895 189.655772 
" clip-path="url(#pfa750485a8)" style="fill: none; stroke: #ff0000; stroke-width: 1.5; stroke-linecap: square"/>
   </g>
   <g id="line2d_24">
    <path d="M 136.324895 159.400228 
L 160.396811 159.400228 
" clip-path="url(#pfa750485a8)" style="fill: none; stroke: #ff0000; stroke-width: 1.5; stroke-linecap: square"/>
   </g>
   <g id="line2d_25">
    <path d="M 160.396811 159.400228 
L 160.396811 129.144683 
" clip-path="url(#pfa750485a8)" style="fill: none; stroke: #ff0000; stroke-width: 1.5; stroke-linecap: square"/>
   </g>
   <g id="line2d_26">
    <path d="M 160.396811 129.144683 
L 145.972122 129.144683 
" clip-path="url(#pfa750485a8)" style="fill: none; stroke: #ff0000; stroke-width: 1.5; stroke-linecap: square"/>
   </g>
   <g id="line2d_27">
    <path d="M 145.972122 129.144683 
L 145.681141 129.726804 
L 145.393922 130.310791 
L 145.110477 130.896618 
L 144.830819 131.484263 
L 144.554958 132.0737 
L 144.282907 132.664905 
L 144.014677 133.257854 
L 143.750278 133.85252 
L 143.489723 134.448881 
L 143.233021 135.04691 
L 142.980183 135.646584 
L 142.731221 136.247876 
L 142.486143 136.850763 
L 142.244961 137.455219 
L 142.007685 138.061218 
L 141.774324 138.668736 
L 141.544889 139.277747 
L 141.319388 139.888225 
L 141.097831 140.500147 
L 140.880227 141.113485 
L 140.666586 141.728215 
L 140.456916 142.34431 
L 140.251226 142.961746 
L 140.049525 143.580496 
L 139.85182 144.200535 
L 139.658121 144.821836 
L 139.468435 145.444375 
L 139.28277 146.068125 
L 139.101134 146.69306 
L 138.923535 147.319154 
L 138.749979 147.94638 
L 138.580475 148.574714 
L 138.415028 149.204129 
L 138.253647 149.834598 
L 138.096338 150.466095 
L 137.943106 151.098594 
L 137.79396 151.732069 
L 137.648904 152.366493 
L 137.507945 153.00184 
L 137.371089 153.638084 
L 137.238342 154.275197 
L 137.109708 154.913154 
L 136.985194 155.551927 
L 136.864805 156.19149 
L 136.748545 156.831817 
L 136.636419 157.472881 
L 136.528433 158.114656 
L 136.42459 158.757113 
L 136.324895 159.400228 
" clip-path="url(#pfa750485a8)" style="fill: none; stroke: #ff0000; stroke-width: 1.5; stroke-linecap: square"/>
   </g>
   <g id="line2d_28">
    <path d="M 145.972122 129.144683 
L 160.396811 129.144683 
" clip-path="url(#pfa750485a8)" style="fill: none; stroke: #ff0000; stroke-width: 1.5; stroke-linecap: square"/>
   </g>
   <g id="line2d_29">
    <path d="M 160.396811 129.144683 
L 160.396811 107.820794 
" clip-path="url(#pfa750485a8)" style="fill: none; stroke: #ff0000; stroke-width: 1.5; stroke-linecap: square"/>
   </g>
   <g id="line2d_30">
    <path d="M 160.396811 107.820794 
L 160.049376 108.216829 
L 159.704015 108.614673 
L 159.360736 109.014316 
L 159.01955 109.415747 
L 158.680465 109.818955 
L 158.343491 110.223928 
L 158.008638 110.630656 
L 157.675914 111.039128 
L 157.345328 111.449333 
L 157.016889 111.861259 
L 156.690607 112.274894 
L 156.366489 112.690229 
L 156.044546 113.107251 
L 155.724786 113.525949 
L 155.407218 113.946312 
L 155.091849 114.368328 
L 154.77869 114.791986 
L 154.467747 115.217274 
L 154.159031 115.64418 
L 153.852549 116.072694 
L 153.54831 116.502802 
L 153.246321 116.934494 
L 152.946592 117.367757 
L 152.64913 117.80258 
L 152.353944 118.238952 
L 152.061041 118.676859 
L 151.77043 119.11629 
L 151.482118 119.557234 
L 151.196114 119.999677 
L 150.912425 120.443609 
L 150.631059 120.889016 
L 150.352023 121.335888 
L 150.075325 121.78421 
L 149.800974 122.233972 
L 149.528975 122.685161 
L 149.259337 123.137765 
L 148.992067 123.591771 
L 148.727173 124.047167 
L 148.46466 124.503941 
L 148.204538 124.96208 
L 147.946812 125.421571 
L 147.691491 125.882403 
L 147.43858 126.344561 
L 147.188086 126.808035 
L 146.940017 127.272811 
L 146.69438 127.738877 
L 146.45118 128.206219 
L 146.210426 128.674825 
L 145.972122 129.144683 
" clip-path="url(#pfa750485a8)" style="fill: none; stroke: #ff0000; stroke-width: 1.5; stroke-linecap: square"/>
   </g>
   <g id="line2d_31">
    <path d="M 190.652356 264.591552 
L 190.652356 250.166862 
" clip-path="url(#pfa750485a8)" style="fill: none; stroke: #ff0000; stroke-width: 1.5; stroke-linecap: square"/>
   </g>
   <g id="line2d_32">
    <path d="M 190.652356 250.166862 
L 169.328467 250.166862 
" clip-path="url(#pfa750485a8)" style="fill: none; stroke: #ff0000; stroke-width: 1.5; stroke-linecap: square"/>
   </g>
   <g id="line2d_33">
    <path d="M 169.328467 250.166862 
L 169.724502 250.514297 
L 170.122347 250.859659 
L 170.52199 251.202937 
L 170.92342 251.544124 
L 171.326628 251.883208 
L 171.731602 252.220182 
L 172.13833 252.555036 
L 172.546802 252.88776 
L 172.957006 253.218346 
L 173.368932 253.546785 
L 173.782568 253.873067 
L 174.197903 254.197184 
L 174.614925 254.519127 
L 175.033623 254.838887 
L 175.453986 255.156456 
L 175.876002 255.471824 
L 176.29966 255.784984 
L 176.724947 256.095926 
L 177.151854 256.404642 
L 177.580367 256.711124 
L 178.010475 257.015364 
L 178.442167 257.317352 
L 178.875431 257.617081 
L 179.310254 257.914543 
L 179.746625 258.209729 
L 180.184532 258.502632 
L 180.623964 258.793243 
L 181.064907 259.081555 
L 181.507351 259.367559 
L 181.951282 259.651249 
L 182.39669 259.932615 
L 182.843561 260.211651 
L 183.291884 260.488348 
L 183.741646 260.7627 
L 184.192835 261.034698 
L 184.645439 261.304336 
L 185.099445 261.571606 
L 185.554841 261.836501 
L 186.011615 262.099013 
L 186.469753 262.359135 
L 186.929245 262.616861 
L 187.390076 262.872183 
L 187.852235 263.125094 
L 188.315709 263.375587 
L 188.780485 263.623656 
L 189.24655 263.869294 
L 189.713892 264.112493 
L 190.182499 264.353248 
L 190.652356 264.591552 
" clip-path="url(#pfa750485a8)" style="fill: none; stroke: #ff0000; stroke-width: 1.5; stroke-linecap: square"/>
   </g>
   <g id="line2d_34">
    <path d="M 169.328467 250.166862 
L 190.652356 250.166862 
" clip-path="url(#pfa750485a8)" style="fill: none; stroke: #ff0000; stroke-width: 1.5; stroke-linecap: square"/>
   </g>
   <g id="line2d_35">
    <path d="M 190.652356 250.166862 
L 190.652356 219.911317 
" clip-path="url(#pfa750485a8)" style="fill: none; stroke: #ff0000; stroke-width: 1.5; stroke-linecap: square"/>
   </g>
   <g id="line2d_36">
    <path d="M 190.652356 219.911317 
L 160.396811 219.911317 
" clip-path="url(#pfa750485a8)" style="fill: none; stroke: #ff0000; stroke-width: 1.5; stroke-linecap: square"/>
   </g>
   <g id="line2d_37">
    <path d="M 160.396811 219.911317 
L 160.396811 241.235206 
" clip-path="url(#pfa750485a8)" style="fill: none; stroke: #ff0000; stroke-width: 1.5; stroke-linecap: square"/>
   </g>
   <g id="line2d_38">
    <path d="M 160.396811 241.235206 
L 160.567676 241.42845 
L 160.739035 241.621256 
L 160.910886 241.813624 
L 161.083229 242.005551 
L 161.256062 242.197037 
L 161.429384 242.38808 
L 161.603195 242.578679 
L 161.777492 242.768833 
L 161.952275 242.95854 
L 162.127543 243.1478 
L 162.303294 243.336611 
L 162.479527 243.524972 
L 162.656242 243.712881 
L 162.833437 243.900338 
L 163.01111 244.087341 
L 163.189262 244.273889 
L 163.36789 244.459981 
L 163.546993 244.645615 
L 163.72657 244.830791 
L 163.906621 245.015506 
L 164.087143 245.199761 
L 164.268136 245.383553 
L 164.449599 245.566882 
L 164.63153 245.749746 
L 164.813928 245.932144 
L 164.996792 246.114075 
L 165.18012 246.295537 
L 165.363913 246.47653 
L 165.548167 246.657053 
L 165.732883 246.837103 
L 165.918058 247.016681 
L 166.103692 247.195784 
L 166.289784 247.374412 
L 166.476332 247.552563 
L 166.663335 247.730237 
L 166.850792 247.907432 
L 167.038701 248.084146 
L 167.227062 248.26038 
L 167.415873 248.436131 
L 167.605133 248.611399 
L 167.794841 248.786182 
L 167.984995 248.960479 
L 168.175594 249.134289 
L 168.366637 249.307611 
L 168.558123 249.480444 
L 168.75005 249.652787 
L 168.942417 249.824638 
L 169.135223 249.995997 
L 169.328467 250.166862 
" clip-path="url(#pfa750485a8)" style="fill: none; stroke: #ff0000; stroke-width: 1.5; stroke-linecap: square"/>
   </g>
   <g id="line2d_39">
    <path d="M 190.652356 189.655772 
L 160.396811 189.655772 
" clip-path="url(#pfa750485a8)" style="fill: none; stroke: #ff0000; stroke-width: 1.5; stroke-linecap: square"/>
   </g>
   <g id="line2d_40">
    <path d="M 160.396811 189.655772 
L 160.396811 219.911317 
" clip-path="url(#pfa750485a8)" style="fill: none; stroke: #ff0000; stroke-width: 1.5; stroke-linecap: square"/>
   </g>
   <g id="line2d_41">
    <path d="M 160.396811 219.911317 
L 190.652356 219.911317 
" clip-path="url(#pfa750485a8)" style="fill: none; stroke: #ff0000; stroke-width: 1.5; stroke-linecap: square"/>
   </g>
   <g id="line2d_42">
    <path d="M 190.652356 219.911317 
L 190.652356 189.655772 
" clip-path="url(#pfa750485a8)" style="fill: none; stroke: #ff0000; stroke-width: 1.5; stroke-linecap: square"/>
   </g>
   <g id="line2d_43">
    <path d="M 190.652356 159.400228 
L 160.396811 159.400228 
" clip-path="url(#pfa750485a8)" style="fill: none; stroke: #ff0000; stroke-width: 1.5; stroke-linecap: square"/>
   </g>
   <g id="line2d_44">
    <path d="M 160.396811 159.400228 
L 160.396811 189.655772 
" clip-path="url(#pfa750485a8)" style="fill: none; stroke: #ff0000; stroke-width: 1.5; stroke-linecap: square"/>
   </g>
   <g id="line2d_45">
    <path d="M 160.396811 189.655772 
L 190.652356 189.655772 
" clip-path="url(#pfa750485a8)" style="fill: none; stroke: #ff0000; stroke-width: 1.5; stroke-linecap: square"/>
   </g>
   <g id="line2d_46">
    <path d="M 190.652356 189.655772 
L 190.652356 159.400228 
" clip-path="url(#pfa750485a8)" style="fill: none; stroke: #ff0000; stroke-width: 1.5; stroke-linecap: square"/>
   </g>
   <g id="line2d_47">
    <path d="M 190.652356 129.144683 
L 160.396811 129.144683 
" clip-path="url(#pfa750485a8)" style="fill: none; stroke: #ff0000; stroke-width: 1.5; stroke-linecap: square"/>
   </g>
   <g id="line2d_48">
    <path d="M 160.396811 129.144683 
L 160.396811 159.400228 
" clip-path="url(#pfa750485a8)" style="fill: none; stroke: #ff0000; stroke-width: 1.5; stroke-linecap: square"/>
   </g>
   <g id="line2d_49">
    <path d="M 160.396811 159.400228 
L 190.652356 159.400228 
" clip-path="url(#pfa750485a8)" style="fill: none; stroke: #ff0000; stroke-width: 1.5; stroke-linecap: square"/>
   </g>
   <g id="line2d_50">
    <path d="M 190.652356 159.400228 
L 190.652356 129.144683 
" clip-path="url(#pfa750485a8)" style="fill: none; stroke: #ff0000; stroke-width: 1.5; stroke-linecap: square"/>
   </g>
   <g id="line2d_51">
    <path d="M 160.396811 107.820794 
L 160.396811 129.144683 
" clip-path="url(#pfa750485a8)" style="fill: none; stroke: #ff0000; stroke-width: 1.5; stroke-linecap: square"/>
   </g>
   <g id="line2d_52">
    <path d="M 160.396811 129.144683 
L 190.652356 129.144683 
" clip-path="url(#pfa750485a8)" style="fill: none; stroke: #ff0000; stroke-width: 1.5; stroke-linecap: square"/>
   </g>
   <g id="line2d_53">
    <path d="M 190.652356 129.144683 
L 190.652356 98.889138 
" clip-path="url(#pfa750485a8)" style="fill: none; stroke: #ff0000; stroke-width: 1.5; stroke-linecap: square"/>
   </g>
   <g id="line2d_54">
    <path d="M 190.652356 98.889138 
L 169.328467 98.889138 
" clip-path="url(#pfa750485a8)" style="fill: none; stroke: #ff0000; stroke-width: 1.5; stroke-linecap: square"/>
   </g>
   <g id="line2d_55">
    <path d="M 169.328467 98.889138 
L 169.135223 99.060003 
L 168.942417 99.231362 
L 168.75005 99.403213 
L 168.558123 99.575556 
L 168.366637 99.748389 
L 168.175594 99.921711 
L 167.984995 100.095521 
L 167.794841 100.269818 
L 167.605133 100.444601 
L 167.415873 100.619869 
L 167.227062 100.79562 
L 167.038701 100.971854 
L 166.850792 101.148568 
L 166.663335 101.325763 
L 166.476332 101.503437 
L 166.289784 101.681588 
L 166.103692 101.860216 
L 165.918058 102.039319 
L 165.732883 102.218897 
L 165.548167 102.398947 
L 165.363913 102.57947 
L 165.18012 102.760463 
L 164.996792 102.941925 
L 164.813928 103.123856 
L 164.63153 103.306254 
L 164.449599 103.489118 
L 164.268136 103.672447 
L 164.087143 103.856239 
L 163.906621 104.040494 
L 163.72657 104.225209 
L 163.546993 104.410385 
L 163.36789 104.596019 
L 163.189262 104.782111 
L 163.01111 104.968659 
L 162.833437 105.155662 
L 162.656242 105.343119 
L 162.479527 105.531028 
L 162.303294 105.719389 
L 162.127543 105.9082 
L 161.952275 106.09746 
L 161.777492 106.287167 
L 161.603195 106.477321 
L 161.429384 106.66792 
L 161.256062 106.858963 
L 161.083229 107.050449 
L 160.910886 107.242376 
L 160.739035 107.434744 
L 160.567676 107.62755 
L 160.396811 107.820794 
" clip-path="url(#pfa750485a8)" style="fill: none; stroke: #ff0000; stroke-width: 1.5; stroke-linecap: square"/>
   </g>
   <g id="line2d_56">
    <path d="M 169.328467 98.889138 
L 190.652356 98.889138 
" clip-path="url(#pfa750485a8)" style="fill: none; stroke: #ff0000; stroke-width: 1.5; stroke-linecap: square"/>
   </g>
   <g id="line2d_57">
    <path d="M 190.652356 98.889138 
L 190.652356 84.464448 
" clip-path="url(#pfa750485a8)" style="fill: none; stroke: #ff0000; stroke-width: 1.5; stroke-linecap: square"/>
   </g>
   <g id="line2d_58">
    <path d="M 190.652356 84.464448 
L 190.182499 84.702752 
L 189.713892 84.943507 
L 189.24655 85.186706 
L 188.780485 85.432344 
L 188.315709 85.680413 
L 187.852235 85.930906 
L 187.390076 86.183817 
L 186.929245 86.439139 
L 186.469753 86.696865 
L 186.011615 86.956987 
L 185.554841 87.219499 
L 185.099445 87.484394 
L 184.645439 87.751664 
L 184.192835 88.021302 
L 183.741646 88.2933 
L 183.291884 88.567652 
L 182.843561 88.844349 
L 182.39669 89.123385 
L 181.951282 89.404751 
L 181.507351 89.688441 
L 181.064907 89.974445 
L 180.623964 90.262757 
L 180.184532 90.553368 
L 179.746625 90.846271 
L 179.310254 91.141457 
L 178.875431 91.438919 
L 178.442167 91.738648 
L 178.010475 92.040636 
L 177.580367 92.344876 
L 177.151854 92.651358 
L 176.724947 92.960074 
L 176.29966 93.271016 
L 175.876002 93.584176 
L 175.453986 93.899544 
L 175.033623 94.217113 
L 174.614925 94.536873 
L 174.197903 94.858816 
L 173.782568 95.182933 
L 173.368932 95.509215 
L 172.957006 95.837654 
L 172.546802 96.16824 
L 172.13833 96.500964 
L 171.731602 96.835818 
L 171.326628 97.172792 
L 170.92342 97.511876 
L 170.52199 97.853063 
L 170.122347 98.196341 
L 169.724502 98.541703 
L 169.328467 98.889138 
" clip-path="url(#pfa750485a8)" style="fill: none; stroke: #ff0000; stroke-width: 1.5; stroke-linecap: square"/>
   </g>
   <g id="line2d_59">
    <path d="M 220.907901 274.238778 
L 220.907901 250.166862 
" clip-path="url(#pfa750485a8)" style="fill: none; stroke: #ff0000; stroke-width: 1.5; stroke-linecap: square"/>
   </g>
   <g id="line2d_60">
    <path d="M 220.907901 250.166862 
L 190.652356 250.166862 
" clip-path="url(#pfa750485a8)" style="fill: none; stroke: #ff0000; stroke-width: 1.5; stroke-linecap: square"/>
   </g>
   <g id="line2d_61">
    <path d="M 190.652356 250.166862 
L 190.652356 264.591552 
" clip-path="url(#pfa750485a8)" style="fill: none; stroke: #ff0000; stroke-width: 1.5; stroke-linecap: square"/>
   </g>
   <g id="line2d_62">
    <path d="M 190.652356 264.591552 
L 191.234477 264.882533 
L 191.818464 265.169752 
L 192.404292 265.453196 
L 192.991937 265.732855 
L 193.581374 266.008715 
L 194.172579 266.280766 
L 194.765527 266.548997 
L 195.360194 266.813395 
L 195.956554 267.073951 
L 196.554584 267.330653 
L 197.154257 267.58349 
L 197.75555 267.832453 
L 198.358437 268.07753 
L 198.962892 268.318712 
L 199.568891 268.555988 
L 200.176409 268.789349 
L 200.78542 269.018785 
L 201.395899 269.244286 
L 202.00782 269.465843 
L 202.621159 269.683446 
L 203.235888 269.897088 
L 203.851984 270.106758 
L 204.469419 270.312448 
L 205.088169 270.514149 
L 205.708208 270.711853 
L 206.32951 270.905553 
L 206.952049 271.095239 
L 207.575798 271.280903 
L 208.200733 271.462539 
L 208.826827 271.640139 
L 209.454054 271.813694 
L 210.082388 271.983199 
L 210.711802 272.148645 
L 211.342271 272.310026 
L 211.973769 272.467336 
L 212.606268 272.620567 
L 213.239743 272.769714 
L 213.874167 272.91477 
L 214.509514 273.055728 
L 215.145757 273.192584 
L 215.78287 273.325332 
L 216.420827 273.453965 
L 217.0596 273.578479 
L 217.699164 273.698869 
L 218.339491 273.815129 
L 218.980555 273.927254 
L 219.622329 274.035241 
L 220.264787 274.139083 
L 220.907901 274.238778 
" clip-path="url(#pfa750485a8)" style="fill: none; stroke: #ff0000; stroke-width: 1.5; stroke-linecap: square"/>
   </g>
   <g id="line2d_63">
    <path d="M 220.907901 219.911317 
L 190.652356 219.911317 
" clip-path="url(#pfa750485a8)" style="fill: none; stroke: #ff0000; stroke-width: 1.5; stroke-linecap: square"/>
   </g>
   <g id="line2d_64">
    <path d="M 190.652356 219.911317 
L 190.652356 250.166862 
" clip-path="url(#pfa750485a8)" style="fill: none; stroke: #ff0000; stroke-width: 1.5; stroke-linecap: square"/>
   </g>
   <g id="line2d_65">
    <path d="M 190.652356 250.166862 
L 220.907901 250.166862 
" clip-path="url(#pfa750485a8)" style="fill: none; stroke: #ff0000; stroke-width: 1.5; stroke-linecap: square"/>
   </g>
   <g id="line2d_66">
    <path d="M 220.907901 250.166862 
L 220.907901 219.911317 
" clip-path="url(#pfa750485a8)" style="fill: none; stroke: #ff0000; stroke-width: 1.5; stroke-linecap: square"/>
   </g>
   <g id="line2d_67">
    <path d="M 220.907901 189.655772 
L 190.652356 189.655772 
" clip-path="url(#pfa750485a8)" style="fill: none; stroke: #ff0000; stroke-width: 1.5; stroke-linecap: square"/>
   </g>
   <g id="line2d_68">
    <path d="M 190.652356 189.655772 
L 190.652356 219.911317 
" clip-path="url(#pfa750485a8)" style="fill: none; stroke: #ff0000; stroke-width: 1.5; stroke-linecap: square"/>
   </g>
   <g id="line2d_69">
    <path d="M 190.652356 219.911317 
L 220.907901 219.911317 
" clip-path="url(#pfa750485a8)" style="fill: none; stroke: #ff0000; stroke-width: 1.5; stroke-linecap: square"/>
   </g>
   <g id="line2d_70">
    <path d="M 220.907901 219.911317 
L 220.907901 189.655772 
" clip-path="url(#pfa750485a8)" style="fill: none; stroke: #ff0000; stroke-width: 1.5; stroke-linecap: square"/>
   </g>
   <g id="line2d_71">
    <path d="M 220.907901 159.400228 
L 190.652356 159.400228 
" clip-path="url(#pfa750485a8)" style="fill: none; stroke: #ff0000; stroke-width: 1.5; stroke-linecap: square"/>
   </g>
   <g id="line2d_72">
    <path d="M 190.652356 159.400228 
L 190.652356 189.655772 
" clip-path="url(#pfa750485a8)" style="fill: none; stroke: #ff0000; stroke-width: 1.5; stroke-linecap: square"/>
   </g>
   <g id="line2d_73">
    <path d="M 190.652356 189.655772 
L 220.907901 189.655772 
" clip-path="url(#pfa750485a8)" style="fill: none; stroke: #ff0000; stroke-width: 1.5; stroke-linecap: square"/>
   </g>
   <g id="line2d_74">
    <path d="M 220.907901 189.655772 
L 220.907901 159.400228 
" clip-path="url(#pfa750485a8)" style="fill: none; stroke: #ff0000; stroke-width: 1.5; stroke-linecap: square"/>
   </g>
   <g id="line2d_75">
    <path d="M 220.907901 129.144683 
L 190.652356 129.144683 
" clip-path="url(#pfa750485a8)" style="fill: none; stroke: #ff0000; stroke-width: 1.5; stroke-linecap: square"/>
   </g>
   <g id="line2d_76">
    <path d="M 190.652356 129.144683 
L 190.652356 159.400228 
" clip-path="url(#pfa750485a8)" style="fill: none; stroke: #ff0000; stroke-width: 1.5; stroke-linecap: square"/>
   </g>
   <g id="line2d_77">
    <path d="M 190.652356 159.400228 
L 220.907901 159.400228 
" clip-path="url(#pfa750485a8)" style="fill: none; stroke: #ff0000; stroke-width: 1.5; stroke-linecap: square"/>
   </g>
   <g id="line2d_78">
    <path d="M 220.907901 159.400228 
L 220.907901 129.144683 
" clip-path="url(#pfa750485a8)" style="fill: none; stroke: #ff0000; stroke-width: 1.5; stroke-linecap: square"/>
   </g>
   <g id="line2d_79">
    <path d="M 220.907901 98.889138 
L 190.652356 98.889138 
" clip-path="url(#pfa750485a8)" style="fill: none; stroke: #ff0000; stroke-width: 1.5; stroke-linecap: square"/>
   </g>
   <g id="line2d_80">
    <path d="M 190.652356 98.889138 
L 190.652356 129.144683 
" clip-path="url(#pfa750485a8)" style="fill: none; stroke: #ff0000; stroke-width: 1.5; stroke-linecap: square"/>
   </g>
   <g id="line2d_81">
    <path d="M 190.652356 129.144683 
L 220.907901 129.144683 
" clip-path="url(#pfa750485a8)" style="fill: none; stroke: #ff0000; stroke-width: 1.5; stroke-linecap: square"/>
   </g>
   <g id="line2d_82">
    <path d="M 220.907901 129.144683 
L 220.907901 98.889138 
" clip-path="url(#pfa750485a8)" style="fill: none; stroke: #ff0000; stroke-width: 1.5; stroke-linecap: square"/>
   </g>
   <g id="line2d_83">
    <path d="M 190.652356 84.464448 
L 190.652356 98.889138 
" clip-path="url(#pfa750485a8)" style="fill: none; stroke: #ff0000; stroke-width: 1.5; stroke-linecap: square"/>
   </g>
   <g id="line2d_84">
    <path d="M 190.652356 98.889138 
L 220.907901 98.889138 
" clip-path="url(#pfa750485a8)" style="fill: none; stroke: #ff0000; stroke-width: 1.5; stroke-linecap: square"/>
   </g>
   <g id="line2d_85">
    <path d="M 220.907901 98.889138 
L 220.907901 74.817222 
" clip-path="url(#pfa750485a8)" style="fill: none; stroke: #ff0000; stroke-width: 1.5; stroke-linecap: square"/>
   </g>
   <g id="line2d_86">
    <path d="M 220.907901 74.817222 
L 220.264787 74.916917 
L 219.622329 75.020759 
L 218.980555 75.128746 
L 218.339491 75.240871 
L 217.699164 75.357131 
L 217.0596 75.477521 
L 216.420827 75.602035 
L 215.78287 75.730668 
L 215.145757 75.863416 
L 214.509514 76.000272 
L 213.874167 76.14123 
L 213.239743 76.286286 
L 212.606268 76.435433 
L 211.973769 76.588664 
L 211.342271 76.745974 
L 210.711802 76.907355 
L 210.082388 77.072801 
L 209.454054 77.242306 
L 208.826827 77.415861 
L 208.200733 77.593461 
L 207.575798 77.775097 
L 206.952049 77.960761 
L 206.32951 78.150447 
L 205.708208 78.344147 
L 205.088169 78.541851 
L 204.469419 78.743552 
L 203.851984 78.949242 
L 203.235888 79.158912 
L 202.621159 79.372554 
L 202.00782 79.590157 
L 201.395899 79.811714 
L 200.78542 80.037215 
L 200.176409 80.266651 
L 199.568891 80.500012 
L 198.962892 80.737288 
L 198.358437 80.97847 
L 197.75555 81.223547 
L 197.154257 81.47251 
L 196.554584 81.725347 
L 195.956554 81.982049 
L 195.360194 82.242605 
L 194.765527 82.507003 
L 194.172579 82.775234 
L 193.581374 83.047285 
L 192.991937 83.323145 
L 192.404292 83.602804 
L 191.818464 83.886248 
L 191.234477 84.173467 
L 190.652356 84.464448 
" clip-path="url(#pfa750485a8)" style="fill: none; stroke: #ff0000; stroke-width: 1.5; stroke-linecap: square"/>
   </g>
   <g id="line2d_87">
    <path d="M 251.163446 274.238778 
L 251.163446 250.166862 
" clip-path="url(#pfa750485a8)" style="fill: none; stroke: #ff0000; stroke-width: 1.5; stroke-linecap: square"/>
   </g>
   <g id="line2d_88">
    <path d="M 251.163446 250.166862 
L 220.907901 250.166862 
" clip-path="url(#pfa750485a8)" style="fill: none; stroke: #ff0000; stroke-width: 1.5; stroke-linecap: square"/>
   </g>
   <g id="line2d_89">
    <path d="M 220.907901 250.166862 
L 220.907901 274.238778 
" clip-path="url(#pfa750485a8)" style="fill: none; stroke: #ff0000; stroke-width: 1.5; stroke-linecap: square"/>
   </g>
   <g id="line2d_90">
    <path d="M 220.907901 274.238778 
L 221.52097 274.329865 
L 222.134587 274.417182 
L 222.748729 274.500726 
L 223.363373 274.580494 
L 223.978495 274.656484 
L 224.594073 274.728691 
L 225.210083 274.797115 
L 225.826502 274.861751 
L 226.443306 274.922598 
L 227.060473 274.979653 
L 227.677978 275.032914 
L 228.2958 275.082379 
L 228.913913 275.128046 
L 229.532296 275.169914 
L 230.150924 275.207981 
L 230.769775 275.242245 
L 231.388824 275.272705 
L 232.008049 275.29936 
L 232.627426 275.322209 
L 233.246932 275.341252 
L 233.866543 275.356486 
L 234.486236 275.367913 
L 235.105988 275.375531 
L 235.725774 275.37934 
L 236.345573 275.37934 
L 236.965359 275.375531 
L 237.585111 275.367913 
L 238.204804 275.356486 
L 238.824415 275.341252 
L 239.443921 275.322209 
L 240.063298 275.29936 
L 240.682523 275.272705 
L 241.301572 275.242245 
L 241.920423 275.207981 
L 242.539051 275.169914 
L 243.157434 275.128046 
L 243.775547 275.082379 
L 244.393369 275.032914 
L 245.010874 274.979653 
L 245.628041 274.922598 
L 246.244845 274.861751 
L 246.861264 274.797115 
L 247.477274 274.728691 
L 248.092852 274.656484 
L 248.707974 274.580494 
L 249.322618 274.500726 
L 249.93676 274.417182 
L 250.550377 274.329865 
L 251.163446 274.238778 
" clip-path="url(#pfa750485a8)" style="fill: none; stroke: #ff0000; stroke-width: 1.5; stroke-linecap: square"/>
   </g>
   <g id="line2d_91">
    <path d="M 251.163446 219.911317 
L 220.907901 219.911317 
" clip-path="url(#pfa750485a8)" style="fill: none; stroke: #ff0000; stroke-width: 1.5; stroke-linecap: square"/>
   </g>
   <g id="line2d_92">
    <path d="M 220.907901 219.911317 
L 220.907901 250.166862 
" clip-path="url(#pfa750485a8)" style="fill: none; stroke: #ff0000; stroke-width: 1.5; stroke-linecap: square"/>
   </g>
   <g id="line2d_93">
    <path d="M 220.907901 250.166862 
L 251.163446 250.166862 
" clip-path="url(#pfa750485a8)" style="fill: none; stroke: #ff0000; stroke-width: 1.5; stroke-linecap: square"/>
   </g>
   <g id="line2d_94">
    <path d="M 251.163446 250.166862 
L 251.163446 219.911317 
" clip-path="url(#pfa750485a8)" style="fill: none; stroke: #ff0000; stroke-width: 1.5; stroke-linecap: square"/>
   </g>
   <g id="line2d_95">
    <path d="M 251.163446 189.655772 
L 220.907901 189.655772 
" clip-path="url(#pfa750485a8)" style="fill: none; stroke: #ff0000; stroke-width: 1.5; stroke-linecap: square"/>
   </g>
   <g id="line2d_96">
    <path d="M 220.907901 189.655772 
L 220.907901 219.911317 
" clip-path="url(#pfa750485a8)" style="fill: none; stroke: #ff0000; stroke-width: 1.5; stroke-linecap: square"/>
   </g>
   <g id="line2d_97">
    <path d="M 220.907901 219.911317 
L 251.163446 219.911317 
" clip-path="url(#pfa750485a8)" style="fill: none; stroke: #ff0000; stroke-width: 1.5; stroke-linecap: square"/>
   </g>
   <g id="line2d_98">
    <path d="M 251.163446 219.911317 
L 251.163446 189.655772 
" clip-path="url(#pfa750485a8)" style="fill: none; stroke: #ff0000; stroke-width: 1.5; stroke-linecap: square"/>
   </g>
   <g id="line2d_99">
    <path d="M 251.163446 159.400228 
L 220.907901 159.400228 
" clip-path="url(#pfa750485a8)" style="fill: none; stroke: #ff0000; stroke-width: 1.5; stroke-linecap: square"/>
   </g>
   <g id="line2d_100">
    <path d="M 220.907901 159.400228 
L 220.907901 189.655772 
" clip-path="url(#pfa750485a8)" style="fill: none; stroke: #ff0000; stroke-width: 1.5; stroke-linecap: square"/>
   </g>
   <g id="line2d_101">
    <path d="M 220.907901 189.655772 
L 251.163446 189.655772 
" clip-path="url(#pfa750485a8)" style="fill: none; stroke: #ff0000; stroke-width: 1.5; stroke-linecap: square"/>
   </g>
   <g id="line2d_102">
    <path d="M 251.163446 189.655772 
L 251.163446 159.400228 
" clip-path="url(#pfa750485a8)" style="fill: none; stroke: #ff0000; stroke-width: 1.5; stroke-linecap: square"/>
   </g>
   <g id="line2d_103">
    <path d="M 251.163446 129.144683 
L 220.907901 129.144683 
" clip-path="url(#pfa750485a8)" style="fill: none; stroke: #ff0000; stroke-width: 1.5; stroke-linecap: square"/>
   </g>
   <g id="line2d_104">
    <path d="M 220.907901 129.144683 
L 220.907901 159.400228 
" clip-path="url(#pfa750485a8)" style="fill: none; stroke: #ff0000; stroke-width: 1.5; stroke-linecap: square"/>
   </g>
   <g id="line2d_105">
    <path d="M 220.907901 159.400228 
L 251.163446 159.400228 
" clip-path="url(#pfa750485a8)" style="fill: none; stroke: #ff0000; stroke-width: 1.5; stroke-linecap: square"/>
   </g>
   <g id="line2d_106">
    <path d="M 251.163446 159.400228 
L 251.163446 129.144683 
" clip-path="url(#pfa750485a8)" style="fill: none; stroke: #ff0000; stroke-width: 1.5; stroke-linecap: square"/>
   </g>
   <g id="line2d_107">
    <path d="M 251.163446 98.889138 
L 220.907901 98.889138 
" clip-path="url(#pfa750485a8)" style="fill: none; stroke: #ff0000; stroke-width: 1.5; stroke-linecap: square"/>
   </g>
   <g id="line2d_108">
    <path d="M 220.907901 98.889138 
L 220.907901 129.144683 
" clip-path="url(#pfa750485a8)" style="fill: none; stroke: #ff0000; stroke-width: 1.5; stroke-linecap: square"/>
   </g>
   <g id="line2d_109">
    <path d="M 220.907901 129.144683 
L 251.163446 129.144683 
" clip-path="url(#pfa750485a8)" style="fill: none; stroke: #ff0000; stroke-width: 1.5; stroke-linecap: square"/>
   </g>
   <g id="line2d_110">
    <path d="M 251.163446 129.144683 
L 251.163446 98.889138 
" clip-path="url(#pfa750485a8)" style="fill: none; stroke: #ff0000; stroke-width: 1.5; stroke-linecap: square"/>
   </g>
   <g id="line2d_111">
    <path d="M 220.907901 74.817222 
L 220.907901 98.889138 
" clip-path="url(#pfa750485a8)" style="fill: none; stroke: #ff0000; stroke-width: 1.5; stroke-linecap: square"/>
   </g>
   <g id="line2d_112">
    <path d="M 220.907901 98.889138 
L 251.163446 98.889138 
" clip-path="url(#pfa750485a8)" style="fill: none; stroke: #ff0000; stroke-width: 1.5; stroke-linecap: square"/>
   </g>
   <g id="line2d_113">
    <path d="M 251.163446 98.889138 
L 251.163446 74.817222 
" clip-path="url(#pfa750485a8)" style="fill: none; stroke: #ff0000; stroke-width: 1.5; stroke-linecap: square"/>
   </g>
   <g id="line2d_114">
    <path d="M 251.163446 74.817222 
L 250.550377 74.726135 
L 249.93676 74.638818 
L 249.322618 74.555274 
L 248.707974 74.475506 
L 248.092852 74.399516 
L 247.477274 74.327309 
L 246.861264 74.258885 
L 246.244845 74.194249 
L 245.628041 74.133402 
L 245.010874 74.076347 
L 244.393369 74.023086 
L 243.775547 73.973621 
L 243.157434 73.927954 
L 242.539051 73.886086 
L 241.920423 73.848019 
L 241.301572 73.813755 
L 240.682523 73.783295 
L 240.063298 73.75664 
L 239.443921 73.733791 
L 238.824415 73.714748 
L 238.204804 73.699514 
L 237.585111 73.688087 
L 236.965359 73.680469 
L 236.345573 73.67666 
L 235.725774 73.67666 
L 235.105988 73.680469 
L 234.486236 73.688087 
L 233.866543 73.699514 
L 233.246932 73.714748 
L 232.627426 73.733791 
L 232.008049 73.75664 
L 231.388824 73.783295 
L 230.769775 73.813755 
L 230.150924 73.848019 
L 229.532296 73.886086 
L 228.913913 73.927954 
L 228.2958 73.973621 
L 227.677978 74.023086 
L 227.060473 74.076347 
L 226.443306 74.133402 
L 225.826502 74.194249 
L 225.210083 74.258885 
L 224.594073 74.327309 
L 223.978495 74.399516 
L 223.363373 74.475506 
L 222.748729 74.555274 
L 222.134587 74.638818 
L 221.52097 74.726135 
L 220.907901 74.817222 
" clip-path="url(#pfa750485a8)" style="fill: none; stroke: #ff0000; stroke-width: 1.5; stroke-linecap: square"/>
   </g>
   <g id="line2d_115">
    <path d="M 281.418991 264.591552 
L 281.418991 250.166862 
" clip-path="url(#pfa750485a8)" style="fill: none; stroke: #ff0000; stroke-width: 1.5; stroke-linecap: square"/>
   </g>
   <g id="line2d_116">
    <path d="M 281.418991 250.166862 
L 251.163446 250.166862 
" clip-path="url(#pfa750485a8)" style="fill: none; stroke: #ff0000; stroke-width: 1.5; stroke-linecap: square"/>
   </g>
   <g id="line2d_117">
    <path d="M 251.163446 250.166862 
L 251.163446 274.238778 
" clip-path="url(#pfa750485a8)" style="fill: none; stroke: #ff0000; stroke-width: 1.5; stroke-linecap: square"/>
   </g>
   <g id="line2d_118">
    <path d="M 251.163446 274.238778 
L 251.80656 274.139083 
L 252.449018 274.035241 
L 253.090792 273.927254 
L 253.731856 273.815129 
L 254.372183 273.698869 
L 255.011747 273.578479 
L 255.65052 273.453965 
L 256.288477 273.325332 
L 256.92559 273.192584 
L 257.561833 273.055728 
L 258.19718 272.91477 
L 258.831604 272.769714 
L 259.465079 272.620567 
L 260.097578 272.467336 
L 260.729076 272.310026 
L 261.359545 272.148645 
L 261.988959 271.983199 
L 262.617293 271.813694 
L 263.24452 271.640139 
L 263.870614 271.462539 
L 264.495549 271.280903 
L 265.119298 271.095239 
L 265.741837 270.905553 
L 266.363139 270.711853 
L 266.983178 270.514149 
L 267.601928 270.312448 
L 268.219363 270.106758 
L 268.835459 269.897088 
L 269.450188 269.683446 
L 270.063527 269.465843 
L 270.675448 269.244286 
L 271.285927 269.018785 
L 271.894938 268.789349 
L 272.502456 268.555988 
L 273.108455 268.318712 
L 273.71291 268.07753 
L 274.315797 267.832453 
L 274.91709 267.58349 
L 275.516763 267.330653 
L 276.114793 267.073951 
L 276.711153 266.813395 
L 277.30582 266.548997 
L 277.898768 266.280766 
L 278.489973 266.008715 
L 279.07941 265.732855 
L 279.667055 265.453196 
L 280.252883 265.169752 
L 280.83687 264.882533 
L 281.418991 264.591552 
" clip-path="url(#pfa750485a8)" style="fill: none; stroke: #ff0000; stroke-width: 1.5; stroke-linecap: square"/>
   </g>
   <g id="line2d_119">
    <path d="M 281.418991 219.911317 
L 251.163446 219.911317 
" clip-path="url(#pfa750485a8)" style="fill: none; stroke: #ff0000; stroke-width: 1.5; stroke-linecap: square"/>
   </g>
   <g id="line2d_120">
    <path d="M 251.163446 219.911317 
L 251.163446 250.166862 
" clip-path="url(#pfa750485a8)" style="fill: none; stroke: #ff0000; stroke-width: 1.5; stroke-linecap: square"/>
   </g>
   <g id="line2d_121">
    <path d="M 251.163446 250.166862 
L 281.418991 250.166862 
" clip-path="url(#pfa750485a8)" style="fill: none; stroke: #ff0000; stroke-width: 1.5; stroke-linecap: square"/>
   </g>
   <g id="line2d_122">
    <path d="M 281.418991 250.166862 
L 281.418991 219.911317 
" clip-path="url(#pfa750485a8)" style="fill: none; stroke: #ff0000; stroke-width: 1.5; stroke-linecap: square"/>
   </g>
   <g id="line2d_123">
    <path d="M 281.418991 189.655772 
L 251.163446 189.655772 
" clip-path="url(#pfa750485a8)" style="fill: none; stroke: #ff0000; stroke-width: 1.5; stroke-linecap: square"/>
   </g>
   <g id="line2d_124">
    <path d="M 251.163446 189.655772 
L 251.163446 219.911317 
" clip-path="url(#pfa750485a8)" style="fill: none; stroke: #ff0000; stroke-width: 1.5; stroke-linecap: square"/>
   </g>
   <g id="line2d_125">
    <path d="M 251.163446 219.911317 
L 281.418991 219.911317 
" clip-path="url(#pfa750485a8)" style="fill: none; stroke: #ff0000; stroke-width: 1.5; stroke-linecap: square"/>
   </g>
   <g id="line2d_126">
    <path d="M 281.418991 219.911317 
L 281.418991 189.655772 
" clip-path="url(#pfa750485a8)" style="fill: none; stroke: #ff0000; stroke-width: 1.5; stroke-linecap: square"/>
   </g>
   <g id="line2d_127">
    <path d="M 281.418991 159.400228 
L 251.163446 159.400228 
" clip-path="url(#pfa750485a8)" style="fill: none; stroke: #ff0000; stroke-width: 1.5; stroke-linecap: square"/>
   </g>
   <g id="line2d_128">
    <path d="M 251.163446 159.400228 
L 251.163446 189.655772 
" clip-path="url(#pfa750485a8)" style="fill: none; stroke: #ff0000; stroke-width: 1.5; stroke-linecap: square"/>
   </g>
   <g id="line2d_129">
    <path d="M 251.163446 189.655772 
L 281.418991 189.655772 
" clip-path="url(#pfa750485a8)" style="fill: none; stroke: #ff0000; stroke-width: 1.5; stroke-linecap: square"/>
   </g>
   <g id="line2d_130">
    <path d="M 281.418991 189.655772 
L 281.418991 159.400228 
" clip-path="url(#pfa750485a8)" style="fill: none; stroke: #ff0000; stroke-width: 1.5; stroke-linecap: square"/>
   </g>
   <g id="line2d_131">
    <path d="M 281.418991 129.144683 
L 251.163446 129.144683 
" clip-path="url(#pfa750485a8)" style="fill: none; stroke: #ff0000; stroke-width: 1.5; stroke-linecap: square"/>
   </g>
   <g id="line2d_132">
    <path d="M 251.163446 129.144683 
L 251.163446 159.400228 
" clip-path="url(#pfa750485a8)" style="fill: none; stroke: #ff0000; stroke-width: 1.5; stroke-linecap: square"/>
   </g>
   <g id="line2d_133">
    <path d="M 251.163446 159.400228 
L 281.418991 159.400228 
" clip-path="url(#pfa750485a8)" style="fill: none; stroke: #ff0000; stroke-width: 1.5; stroke-linecap: square"/>
   </g>
   <g id="line2d_134">
    <path d="M 281.418991 159.400228 
L 281.418991 129.144683 
" clip-path="url(#pfa750485a8)" style="fill: none; stroke: #ff0000; stroke-width: 1.5; stroke-linecap: square"/>
   </g>
   <g id="line2d_135">
    <path d="M 281.418991 98.889138 
L 251.163446 98.889138 
" clip-path="url(#pfa750485a8)" style="fill: none; stroke: #ff0000; stroke-width: 1.5; stroke-linecap: square"/>
   </g>
   <g id="line2d_136">
    <path d="M 251.163446 98.889138 
L 251.163446 129.144683 
" clip-path="url(#pfa750485a8)" style="fill: none; stroke: #ff0000; stroke-width: 1.5; stroke-linecap: square"/>
   </g>
   <g id="line2d_137">
    <path d="M 251.163446 129.144683 
L 281.418991 129.144683 
" clip-path="url(#pfa750485a8)" style="fill: none; stroke: #ff0000; stroke-width: 1.5; stroke-linecap: square"/>
   </g>
   <g id="line2d_138">
    <path d="M 281.418991 129.144683 
L 281.418991 98.889138 
" clip-path="url(#pfa750485a8)" style="fill: none; stroke: #ff0000; stroke-width: 1.5; stroke-linecap: square"/>
   </g>
   <g id="line2d_139">
    <path d="M 251.163446 74.817222 
L 251.163446 98.889138 
" clip-path="url(#pfa750485a8)" style="fill: none; stroke: #ff0000; stroke-width: 1.5; stroke-linecap: square"/>
   </g>
   <g id="line2d_140">
    <path d="M 251.163446 98.889138 
L 281.418991 98.889138 
" clip-path="url(#pfa750485a8)" style="fill: none; stroke: #ff0000; stroke-width: 1.5; stroke-linecap: square"/>
   </g>
   <g id="line2d_141">
    <path d="M 281.418991 98.889138 
L 281.418991 84.464448 
" clip-path="url(#pfa750485a8)" style="fill: none; stroke: #ff0000; stroke-width: 1.5; stroke-linecap: square"/>
   </g>
   <g id="line2d_142">
    <path d="M 281.418991 84.464448 
L 280.83687 84.173467 
L 280.252883 83.886248 
L 279.667055 83.602804 
L 279.07941 83.323145 
L 278.489973 83.047285 
L 277.898768 82.775234 
L 277.30582 82.507003 
L 276.711153 82.242605 
L 276.114793 81.982049 
L 275.516763 81.725347 
L 274.91709 81.47251 
L 274.315797 81.223547 
L 273.71291 80.97847 
L 273.108455 80.737288 
L 272.502456 80.500012 
L 271.894938 80.266651 
L 271.285927 80.037215 
L 270.675448 79.811714 
L 270.063527 79.590157 
L 269.450188 79.372554 
L 268.835459 79.158912 
L 268.219363 78.949242 
L 267.601928 78.743552 
L 266.983178 78.541851 
L 266.363139 78.344147 
L 265.741837 78.150447 
L 265.119298 77.960761 
L 264.495549 77.775097 
L 263.870614 77.593461 
L 263.24452 77.415861 
L 262.617293 77.242306 
L 261.988959 77.072801 
L 261.359545 76.907355 
L 260.729076 76.745974 
L 260.097578 76.588664 
L 259.465079 76.435433 
L 258.831604 76.286286 
L 258.19718 76.14123 
L 257.561833 76.000272 
L 256.92559 75.863416 
L 256.288477 75.730668 
L 255.65052 75.602035 
L 255.011747 75.477521 
L 254.372183 75.357131 
L 253.731856 75.240871 
L 253.090792 75.128746 
L 252.449018 75.020759 
L 251.80656 74.916917 
L 251.163446 74.817222 
" clip-path="url(#pfa750485a8)" style="fill: none; stroke: #ff0000; stroke-width: 1.5; stroke-linecap: square"/>
   </g>
   <g id="line2d_143">
    <path d="M 302.74288 250.166862 
L 281.418991 250.166862 
" clip-path="url(#pfa750485a8)" style="fill: none; stroke: #ff0000; stroke-width: 1.5; stroke-linecap: square"/>
   </g>
   <g id="line2d_144">
    <path d="M 281.418991 250.166862 
L 281.418991 264.591552 
" clip-path="url(#pfa750485a8)" style="fill: none; stroke: #ff0000; stroke-width: 1.5; stroke-linecap: square"/>
   </g>
   <g id="line2d_145">
    <path d="M 281.418991 264.591552 
L 281.888848 264.353248 
L 282.357455 264.112493 
L 282.824797 263.869294 
L 283.290862 263.623656 
L 283.755638 263.375587 
L 284.219112 263.125094 
L 284.681271 262.872183 
L 285.142102 262.616861 
L 285.601594 262.359135 
L 286.059732 262.099013 
L 286.516506 261.836501 
L 286.971902 261.571606 
L 287.425908 261.304336 
L 287.878512 261.034698 
L 288.329701 260.7627 
L 288.779463 260.488348 
L 289.227786 260.211651 
L 289.674657 259.932615 
L 290.120065 259.651249 
L 290.563996 259.367559 
L 291.00644 259.081555 
L 291.447383 258.793243 
L 291.886815 258.502632 
L 292.324722 258.209729 
L 292.761093 257.914543 
L 293.195916 257.617081 
L 293.62918 257.317352 
L 294.060872 257.015364 
L 294.49098 256.711124 
L 294.919493 256.404642 
L 295.3464 256.095926 
L 295.771687 255.784984 
L 296.195345 255.471824 
L 296.617361 255.156456 
L 297.037724 254.838887 
L 297.456422 254.519127 
L 297.873444 254.197184 
L 298.288779 253.873067 
L 298.702415 253.546785 
L 299.114341 253.218346 
L 299.524545 252.88776 
L 299.933017 252.555036 
L 300.339745 252.220182 
L 300.744719 251.883208 
L 301.147926 251.544124 
L 301.549357 251.202937 
L 301.949 250.859659 
L 302.346845 250.514297 
L 302.74288 250.166862 
" clip-path="url(#pfa750485a8)" style="fill: none; stroke: #ff0000; stroke-width: 1.5; stroke-linecap: square"/>
   </g>
   <g id="line2d_146">
    <path d="M 311.674535 241.235206 
L 311.674535 219.911317 
" clip-path="url(#pfa750485a8)" style="fill: none; stroke: #ff0000; stroke-width: 1.5; stroke-linecap: square"/>
   </g>
   <g id="line2d_147">
    <path d="M 311.674535 219.911317 
L 281.418991 219.911317 
" clip-path="url(#pfa750485a8)" style="fill: none; stroke: #ff0000; stroke-width: 1.5; stroke-linecap: square"/>
   </g>
   <g id="line2d_148">
    <path d="M 281.418991 219.911317 
L 281.418991 250.166862 
" clip-path="url(#pfa750485a8)" style="fill: none; stroke: #ff0000; stroke-width: 1.5; stroke-linecap: square"/>
   </g>
   <g id="line2d_149">
    <path d="M 281.418991 250.166862 
L 302.74288 250.166862 
" clip-path="url(#pfa750485a8)" style="fill: none; stroke: #ff0000; stroke-width: 1.5; stroke-linecap: square"/>
   </g>
   <g id="line2d_150">
    <path d="M 302.74288 250.166862 
L 302.936124 249.995997 
L 303.12893 249.824638 
L 303.321297 249.652787 
L 303.513224 249.480444 
L 303.70471 249.307611 
L 303.895753 249.134289 
L 304.086352 248.960479 
L 304.276506 248.786182 
L 304.466214 248.611399 
L 304.655474 248.436131 
L 304.844285 248.26038 
L 305.032645 248.084146 
L 305.220555 247.907432 
L 305.408012 247.730237 
L 305.595015 247.552563 
L 305.781563 247.374412 
L 305.967655 247.195784 
L 306.153289 247.016681 
L 306.338464 246.837103 
L 306.52318 246.657053 
L 306.707434 246.47653 
L 306.891227 246.295537 
L 307.074555 246.114075 
L 307.257419 245.932144 
L 307.439817 245.749746 
L 307.621748 245.566882 
L 307.803211 245.383553 
L 307.984204 245.199761 
L 308.164726 245.015506 
L 308.344777 244.830791 
L 308.524354 244.645615 
L 308.703457 244.459981 
L 308.882085 244.273889 
L 309.060237 244.087341 
L 309.23791 243.900338 
L 309.415105 243.712881 
L 309.59182 243.524972 
L 309.768053 243.336611 
L 309.943804 243.1478 
L 310.119072 242.95854 
L 310.293855 242.768833 
L 310.468152 242.578679 
L 310.641963 242.38808 
L 310.815285 242.197037 
L 310.988118 242.005551 
L 311.160461 241.813624 
L 311.332312 241.621256 
L 311.503671 241.42845 
L 311.674535 241.235206 
" clip-path="url(#pfa750485a8)" style="fill: none; stroke: #ff0000; stroke-width: 1.5; stroke-linecap: square"/>
   </g>
   <g id="line2d_151">
    <path d="M 311.674535 189.655772 
L 281.418991 189.655772 
" clip-path="url(#pfa750485a8)" style="fill: none; stroke: #ff0000; stroke-width: 1.5; stroke-linecap: square"/>
   </g>
   <g id="line2d_152">
    <path d="M 281.418991 189.655772 
L 281.418991 219.911317 
" clip-path="url(#pfa750485a8)" style="fill: none; stroke: #ff0000; stroke-width: 1.5; stroke-linecap: square"/>
   </g>
   <g id="line2d_153">
    <path d="M 281.418991 219.911317 
L 311.674535 219.911317 
" clip-path="url(#pfa750485a8)" style="fill: none; stroke: #ff0000; stroke-width: 1.5; stroke-linecap: square"/>
   </g>
   <g id="line2d_154">
    <path d="M 311.674535 219.911317 
L 311.674535 189.655772 
" clip-path="url(#pfa750485a8)" style="fill: none; stroke: #ff0000; stroke-width: 1.5; stroke-linecap: square"/>
   </g>
   <g id="line2d_155">
    <path d="M 311.674535 159.400228 
L 281.418991 159.400228 
" clip-path="url(#pfa750485a8)" style="fill: none; stroke: #ff0000; stroke-width: 1.5; stroke-linecap: square"/>
   </g>
   <g id="line2d_156">
    <path d="M 281.418991 159.400228 
L 281.418991 189.655772 
" clip-path="url(#pfa750485a8)" style="fill: none; stroke: #ff0000; stroke-width: 1.5; stroke-linecap: square"/>
   </g>
   <g id="line2d_157">
    <path d="M 281.418991 189.655772 
L 311.674535 189.655772 
" clip-path="url(#pfa750485a8)" style="fill: none; stroke: #ff0000; stroke-width: 1.5; stroke-linecap: square"/>
   </g>
   <g id="line2d_158">
    <path d="M 311.674535 189.655772 
L 311.674535 159.400228 
" clip-path="url(#pfa750485a8)" style="fill: none; stroke: #ff0000; stroke-width: 1.5; stroke-linecap: square"/>
   </g>
   <g id="line2d_159">
    <path d="M 311.674535 129.144683 
L 281.418991 129.144683 
" clip-path="url(#pfa750485a8)" style="fill: none; stroke: #ff0000; stroke-width: 1.5; stroke-linecap: square"/>
   </g>
   <g id="line2d_160">
    <path d="M 281.418991 129.144683 
L 281.418991 159.400228 
" clip-path="url(#pfa750485a8)" style="fill: none; stroke: #ff0000; stroke-width: 1.5; stroke-linecap: square"/>
   </g>
   <g id="line2d_161">
    <path d="M 281.418991 159.400228 
L 311.674535 159.400228 
" clip-path="url(#pfa750485a8)" style="fill: none; stroke: #ff0000; stroke-width: 1.5; stroke-linecap: square"/>
   </g>
   <g id="line2d_162">
    <path d="M 311.674535 159.400228 
L 311.674535 129.144683 
" clip-path="url(#pfa750485a8)" style="fill: none; stroke: #ff0000; stroke-width: 1.5; stroke-linecap: square"/>
   </g>
   <g id="line2d_163">
    <path d="M 302.74288 98.889138 
L 281.418991 98.889138 
" clip-path="url(#pfa750485a8)" style="fill: none; stroke: #ff0000; stroke-width: 1.5; stroke-linecap: square"/>
   </g>
   <g id="line2d_164">
    <path d="M 281.418991 98.889138 
L 281.418991 129.144683 
" clip-path="url(#pfa750485a8)" style="fill: none; stroke: #ff0000; stroke-width: 1.5; stroke-linecap: square"/>
   </g>
   <g id="line2d_165">
    <path d="M 281.418991 129.144683 
L 311.674535 129.144683 
" clip-path="url(#pfa750485a8)" style="fill: none; stroke: #ff0000; stroke-width: 1.5; stroke-linecap: square"/>
   </g>
   <g id="line2d_166">
    <path d="M 311.674535 129.144683 
L 311.674535 107.820794 
" clip-path="url(#pfa750485a8)" style="fill: none; stroke: #ff0000; stroke-width: 1.5; stroke-linecap: square"/>
   </g>
   <g id="line2d_167">
    <path d="M 311.674535 107.820794 
L 311.503671 107.62755 
L 311.332312 107.434744 
L 311.160461 107.242376 
L 310.988118 107.050449 
L 310.815285 106.858963 
L 310.641963 106.66792 
L 310.468152 106.477321 
L 310.293855 106.287167 
L 310.119072 106.09746 
L 309.943804 105.9082 
L 309.768053 105.719389 
L 309.59182 105.531028 
L 309.415105 105.343119 
L 309.23791 105.155662 
L 309.060237 104.968659 
L 308.882085 104.782111 
L 308.703457 104.596019 
L 308.524354 104.410385 
L 308.344777 104.225209 
L 308.164726 104.040494 
L 307.984204 103.856239 
L 307.803211 103.672447 
L 307.621748 103.489118 
L 307.439817 103.306254 
L 307.257419 103.123856 
L 307.074555 102.941925 
L 306.891227 102.760463 
L 306.707434 102.57947 
L 306.52318 102.398947 
L 306.338464 102.218897 
L 306.153289 102.039319 
L 305.967655 101.860216 
L 305.781563 101.681588 
L 305.595015 101.503437 
L 305.408012 101.325763 
L 305.220555 101.148568 
L 305.032645 100.971854 
L 304.844285 100.79562 
L 304.655474 100.619869 
L 304.466214 100.444601 
L 304.276506 100.269818 
L 304.086352 100.095521 
L 303.895753 99.921711 
L 303.70471 99.748389 
L 303.513224 99.575556 
L 303.321297 99.403213 
L 303.12893 99.231362 
L 302.936124 99.060003 
L 302.74288 98.889138 
" clip-path="url(#pfa750485a8)" style="fill: none; stroke: #ff0000; stroke-width: 1.5; stroke-linecap: square"/>
   </g>
   <g id="line2d_168">
    <path d="M 281.418991 84.464448 
L 281.418991 98.889138 
" clip-path="url(#pfa750485a8)" style="fill: none; stroke: #ff0000; stroke-width: 1.5; stroke-linecap: square"/>
   </g>
   <g id="line2d_169">
    <path d="M 281.418991 98.889138 
L 302.74288 98.889138 
" clip-path="url(#pfa750485a8)" style="fill: none; stroke: #ff0000; stroke-width: 1.5; stroke-linecap: square"/>
   </g>
   <g id="line2d_170">
    <path d="M 302.74288 98.889138 
L 302.346845 98.541703 
L 301.949 98.196341 
L 301.549357 97.853063 
L 301.147926 97.511876 
L 300.744719 97.172792 
L 300.339745 96.835818 
L 299.933017 96.500964 
L 299.524545 96.16824 
L 299.114341 95.837654 
L 298.702415 95.509215 
L 298.288779 95.182933 
L 297.873444 94.858816 
L 297.456422 94.536873 
L 297.037724 94.217113 
L 296.617361 93.899544 
L 296.195345 93.584176 
L 295.771687 93.271016 
L 295.3464 92.960074 
L 294.919493 92.651358 
L 294.49098 92.344876 
L 294.060872 92.040636 
L 293.62918 91.738648 
L 293.195916 91.438919 
L 292.761093 91.141457 
L 292.324722 90.846271 
L 291.886815 90.553368 
L 291.447383 90.262757 
L 291.00644 89.974445 
L 290.563996 89.688441 
L 290.120065 89.404751 
L 289.674657 89.123385 
L 289.227786 88.844349 
L 288.779463 88.567652 
L 288.329701 88.2933 
L 287.878512 88.021302 
L 287.425908 87.751664 
L 286.971902 87.484394 
L 286.516506 87.219499 
L 286.059732 86.956987 
L 285.601594 86.696865 
L 285.142102 86.439139 
L 284.681271 86.183817 
L 284.219112 85.930906 
L 283.755638 85.680413 
L 283.290862 85.432344 
L 282.824797 85.186706 
L 282.357455 84.943507 
L 281.888848 84.702752 
L 281.418991 84.464448 
" clip-path="url(#pfa750485a8)" style="fill: none; stroke: #ff0000; stroke-width: 1.5; stroke-linecap: square"/>
   </g>
   <g id="line2d_171">
    <path d="M 326.099225 219.911317 
L 311.674535 219.911317 
" clip-path="url(#pfa750485a8)" style="fill: none; stroke: #ff0000; stroke-width: 1.5; stroke-linecap: square"/>
   </g>
   <g id="line2d_172">
    <path d="M 311.674535 219.911317 
L 311.674535 241.235206 
" clip-path="url(#pfa750485a8)" style="fill: none; stroke: #ff0000; stroke-width: 1.5; stroke-linecap: square"/>
   </g>
   <g id="line2d_173">
    <path d="M 311.674535 241.235206 
L 312.021971 240.839171 
L 312.367332 240.441327 
L 312.710611 240.041684 
L 313.051797 239.640253 
L 313.390882 239.237045 
L 313.727855 238.832072 
L 314.062709 238.425344 
L 314.395433 238.016872 
L 314.726019 237.606667 
L 315.054458 237.194741 
L 315.38074 236.781106 
L 315.704858 236.365771 
L 316.026801 235.948749 
L 316.346561 235.530051 
L 316.664129 235.109688 
L 316.979498 234.687672 
L 317.292657 234.264014 
L 317.6036 233.838726 
L 317.912316 233.41182 
L 318.218798 232.983306 
L 318.523037 232.553198 
L 318.825026 232.121506 
L 319.124755 231.688243 
L 319.422217 231.25342 
L 319.717403 230.817048 
L 320.010306 230.379141 
L 320.300917 229.93971 
L 320.589228 229.498766 
L 320.875233 229.056323 
L 321.158922 228.612391 
L 321.440288 228.166984 
L 321.719324 227.720112 
L 321.996022 227.27179 
L 322.270373 226.822028 
L 322.542372 226.370839 
L 322.81201 225.918235 
L 323.07928 225.464229 
L 323.344174 225.008833 
L 323.606687 224.552059 
L 323.866809 224.09392 
L 324.124535 223.634429 
L 324.379856 223.173597 
L 324.632767 222.711439 
L 324.883261 222.247965 
L 325.131329 221.783189 
L 325.376967 221.317123 
L 325.620166 220.849781 
L 325.860921 220.381175 
L 326.099225 219.911317 
" clip-path="url(#pfa750485a8)" style="fill: none; stroke: #ff0000; stroke-width: 1.5; stroke-linecap: square"/>
   </g>
   <g id="line2d_174">
    <path d="M 335.746452 189.655772 
L 311.674535 189.655772 
" clip-path="url(#pfa750485a8)" style="fill: none; stroke: #ff0000; stroke-width: 1.5; stroke-linecap: square"/>
   </g>
   <g id="line2d_175">
    <path d="M 311.674535 189.655772 
L 311.674535 219.911317 
" clip-path="url(#pfa750485a8)" style="fill: none; stroke: #ff0000; stroke-width: 1.5; stroke-linecap: square"/>
   </g>
   <g id="line2d_176">
    <path d="M 311.674535 219.911317 
L 326.099225 219.911317 
" clip-path="url(#pfa750485a8)" style="fill: none; stroke: #ff0000; stroke-width: 1.5; stroke-linecap: square"/>
   </g>
   <g id="line2d_177">
    <path d="M 326.099225 219.911317 
L 326.390206 219.329196 
L 326.677425 218.745209 
L 326.96087 218.159382 
L 327.240528 217.571737 
L 327.516389 216.9823 
L 327.78844 216.391095 
L 328.05667 215.798146 
L 328.321069 215.20348 
L 328.581624 214.607119 
L 328.838326 214.00909 
L 329.091164 213.409416 
L 329.340126 212.808124 
L 329.585204 212.205237 
L 329.826386 211.600781 
L 330.063662 210.994782 
L 330.297023 210.387264 
L 330.526458 209.778253 
L 330.751959 209.167775 
L 330.973516 208.555853 
L 331.19112 207.942515 
L 331.404761 207.327785 
L 331.614431 206.71169 
L 331.820121 206.094254 
L 332.021822 205.475504 
L 332.219527 204.855465 
L 332.413226 204.234164 
L 332.602912 203.611625 
L 332.788577 202.987875 
L 332.970213 202.36294 
L 333.147812 201.736846 
L 333.321368 201.10962 
L 333.490872 200.481286 
L 333.656319 199.851871 
L 333.8177 199.221402 
L 333.975009 198.589905 
L 334.128241 197.957406 
L 334.277387 197.323931 
L 334.422443 196.689507 
L 334.563402 196.05416 
L 334.700258 195.417916 
L 334.833005 194.780803 
L 334.961639 194.142846 
L 335.086153 193.504073 
L 335.206542 192.86451 
L 335.322802 192.224183 
L 335.434928 191.583119 
L 335.542914 190.941344 
L 335.646757 190.298887 
L 335.746452 189.655772 
" clip-path="url(#pfa750485a8)" style="fill: none; stroke: #ff0000; stroke-width: 1.5; stroke-linecap: square"/>
   </g>
   <g id="line2d_178">
    <path d="M 335.746452 159.400228 
L 311.674535 159.400228 
" clip-path="url(#pfa750485a8)" style="fill: none; stroke: #ff0000; stroke-width: 1.5; stroke-linecap: square"/>
   </g>
   <g id="line2d_179">
    <path d="M 311.674535 159.400228 
L 311.674535 189.655772 
" clip-path="url(#pfa750485a8)" style="fill: none; stroke: #ff0000; stroke-width: 1.5; stroke-linecap: square"/>
   </g>
   <g id="line2d_180">
    <path d="M 311.674535 189.655772 
L 335.746452 189.655772 
" clip-path="url(#pfa750485a8)" style="fill: none; stroke: #ff0000; stroke-width: 1.5; stroke-linecap: square"/>
   </g>
   <g id="line2d_181">
    <path d="M 335.746452 189.655772 
L 335.837538 189.042704 
L 335.924855 188.429087 
L 336.008399 187.814945 
L 336.088168 187.200301 
L 336.164157 186.585178 
L 336.236365 185.969601 
L 336.304788 185.353591 
L 336.369425 184.737172 
L 336.430271 184.120368 
L 336.487326 183.503201 
L 336.540587 182.885695 
L 336.590053 182.267874 
L 336.63572 181.64976 
L 336.677588 181.031377 
L 336.715654 180.412749 
L 336.749918 179.793899 
L 336.780378 179.174849 
L 336.807034 178.555624 
L 336.829883 177.936247 
L 336.848925 177.316742 
L 336.86416 176.69713 
L 336.875586 176.077437 
L 336.883204 175.457686 
L 336.887013 174.837899 
L 336.887013 174.218101 
L 336.883204 173.598314 
L 336.875586 172.978563 
L 336.86416 172.35887 
L 336.848925 171.739258 
L 336.829883 171.119753 
L 336.807034 170.500376 
L 336.780378 169.881151 
L 336.749918 169.262101 
L 336.715654 168.643251 
L 336.677588 168.024623 
L 336.63572 167.40624 
L 336.590053 166.788126 
L 336.540587 166.170305 
L 336.487326 165.552799 
L 336.430271 164.935632 
L 336.369425 164.318828 
L 336.304788 163.702409 
L 336.236365 163.086399 
L 336.164157 162.470822 
L 336.088168 161.855699 
L 336.008399 161.241055 
L 335.924855 160.626913 
L 335.837538 160.013296 
L 335.746452 159.400228 
" clip-path="url(#pfa750485a8)" style="fill: none; stroke: #ff0000; stroke-width: 1.5; stroke-linecap: square"/>
   </g>
   <g id="line2d_182">
    <path d="M 326.099225 129.144683 
L 311.674535 129.144683 
" clip-path="url(#pfa750485a8)" style="fill: none; stroke: #ff0000; stroke-width: 1.5; stroke-linecap: square"/>
   </g>
   <g id="line2d_183">
    <path d="M 311.674535 129.144683 
L 311.674535 159.400228 
" clip-path="url(#pfa750485a8)" style="fill: none; stroke: #ff0000; stroke-width: 1.5; stroke-linecap: square"/>
   </g>
   <g id="line2d_184">
    <path d="M 311.674535 159.400228 
L 335.746452 159.400228 
" clip-path="url(#pfa750485a8)" style="fill: none; stroke: #ff0000; stroke-width: 1.5; stroke-linecap: square"/>
   </g>
   <g id="line2d_185">
    <path d="M 335.746452 159.400228 
L 335.646757 158.757113 
L 335.542914 158.114656 
L 335.434928 157.472881 
L 335.322802 156.831817 
L 335.206542 156.19149 
L 335.086153 155.551927 
L 334.961639 154.913154 
L 334.833005 154.275197 
L 334.700258 153.638084 
L 334.563402 153.00184 
L 334.422443 152.366493 
L 334.277387 151.732069 
L 334.128241 151.098594 
L 333.975009 150.466095 
L 333.8177 149.834598 
L 333.656319 149.204129 
L 333.490872 148.574714 
L 333.321368 147.94638 
L 333.147812 147.319154 
L 332.970213 146.69306 
L 332.788577 146.068125 
L 332.602912 145.444375 
L 332.413226 144.821836 
L 332.219527 144.200535 
L 332.021822 143.580496 
L 331.820121 142.961746 
L 331.614431 142.34431 
L 331.404761 141.728215 
L 331.19112 141.113485 
L 330.973516 140.500147 
L 330.751959 139.888225 
L 330.526458 139.277747 
L 330.297023 138.668736 
L 330.063662 138.061218 
L 329.826386 137.455219 
L 329.585204 136.850763 
L 329.340126 136.247876 
L 329.091164 135.646584 
L 328.838326 135.04691 
L 328.581624 134.448881 
L 328.321069 133.85252 
L 328.05667 133.257854 
L 327.78844 132.664905 
L 327.516389 132.0737 
L 327.240528 131.484263 
L 326.96087 130.896618 
L 326.677425 130.310791 
L 326.390206 129.726804 
L 326.099225 129.144683 
" clip-path="url(#pfa750485a8)" style="fill: none; stroke: #ff0000; stroke-width: 1.5; stroke-linecap: square"/>
   </g>
   <g id="line2d_186">
    <path d="M 311.674535 107.820794 
L 311.674535 129.144683 
" clip-path="url(#pfa750485a8)" style="fill: none; stroke: #ff0000; stroke-width: 1.5; stroke-linecap: square"/>
   </g>
   <g id="line2d_187">
    <path d="M 311.674535 129.144683 
L 326.099225 129.144683 
" clip-path="url(#pfa750485a8)" style="fill: none; stroke: #ff0000; stroke-width: 1.5; stroke-linecap: square"/>
   </g>
   <g id="line2d_188">
    <path d="M 326.099225 129.144683 
L 325.860921 128.674825 
L 325.620166 128.206219 
L 325.376967 127.738877 
L 325.131329 127.272811 
L 324.883261 126.808035 
L 324.632767 126.344561 
L 324.379856 125.882403 
L 324.124535 125.421571 
L 323.866809 124.96208 
L 323.606687 124.503941 
L 323.344174 124.047167 
L 323.07928 123.591771 
L 322.81201 123.137765 
L 322.542372 122.685161 
L 322.270373 122.233972 
L 321.996022 121.78421 
L 321.719324 121.335888 
L 321.440288 120.889016 
L 321.158922 120.443609 
L 320.875233 119.999677 
L 320.589228 119.557234 
L 320.300917 119.11629 
L 320.010306 118.676859 
L 319.717403 118.238952 
L 319.422217 117.80258 
L 319.124755 117.367757 
L 318.825026 116.934494 
L 318.523037 116.502802 
L 318.218798 116.072694 
L 317.912316 115.64418 
L 317.6036 115.217274 
L 317.292657 114.791986 
L 316.979498 114.368328 
L 316.664129 113.946312 
L 316.346561 113.525949 
L 316.026801 113.107251 
L 315.704858 112.690229 
L 315.38074 112.274894 
L 315.054458 111.861259 
L 314.726019 111.449333 
L 314.395433 111.039128 
L 314.062709 110.630656 
L 313.727855 110.223928 
L 313.390882 109.818955 
L 313.051797 109.415747 
L 312.710611 109.014316 
L 312.367332 108.614673 
L 312.021971 108.216829 
L 311.674535 107.820794 
" clip-path="url(#pfa750485a8)" style="fill: none; stroke: #ff0000; stroke-width: 1.5; stroke-linecap: square"/>
   </g>
   <g id="line2d_189">
    <path d="M 336.88749 174.528 
L 336.059497 161.631356 
L 333.589117 148.946475 
L 329.516912 136.681641 
L 323.909747 125.038244 
L 316.859693 114.207467 
L 308.48251 104.367151 
L 298.915752 95.678875 
L 288.316505 88.285299 
L 276.858809 82.307826 
L 264.730797 77.844606 
L 252.131613 74.968924 
L 239.268133 73.728 
L 226.351577 74.142209 
L 213.594033 76.20475 
L 201.204981 79.881755 
L 189.387847 85.11285 
L 178.336669 91.812139 
L 168.232908 99.86962 
L 159.242466 109.152989 
L 151.512966 119.509815 
L 145.171327 130.770037 
L 140.321678 142.748764 
L 137.04365 155.249305 
L 135.391068 168.066402 
L 135.391068 180.989598 
L 137.04365 193.806695 
L 140.321678 206.307236 
L 145.171327 218.285963 
L 151.512966 229.546185 
L 159.242466 239.903011 
L 168.232908 249.18638 
L 178.336669 257.243861 
L 189.387847 263.94315 
L 201.204981 269.174245 
L 213.594033 272.85125 
L 226.351577 274.913791 
L 239.268133 275.328 
L 252.131613 274.087076 
L 264.730797 271.211394 
L 276.858809 266.748174 
L 288.316505 260.770701 
L 298.915752 253.377125 
L 308.48251 244.688849 
L 316.859693 234.848533 
L 323.909747 224.017756 
L 329.516912 212.374359 
L 333.589117 200.109525 
L 336.059497 187.424644 
L 336.88749 174.528 
" clip-path="url(#pfa750485a8)" style="fill: none; stroke: #000000; stroke-width: 1.5; stroke-linecap: square"/>
   </g>
   <g id="line2d_190">
    <path d="M 357.057853 174.528 
L 356.064262 159.052027 
L 353.099806 143.830169 
L 348.213159 129.112369 
L 341.484562 115.140292 
L 333.024496 102.14336 
L 322.971877 90.334982 
L 311.491768 79.90905 
L 298.772672 71.036759 
L 285.023436 63.863792 
L 270.469822 58.507927 
L 255.350801 55.057109 
L 239.914625 53.568 
L 224.414758 54.065051 
L 209.105705 56.540099 
L 194.238842 60.952506 
L 180.058282 67.22982 
L 166.796868 75.268966 
L 154.672355 84.937944 
L 143.883824 96.077987 
L 134.608425 108.506177 
L 126.998458 122.018444 
L 121.178879 136.392917 
L 117.245245 151.393566 
L 115.262147 166.774082 
L 115.262147 182.281918 
L 117.245245 197.662434 
L 121.178879 212.663083 
L 126.998458 227.037556 
L 134.608425 240.549823 
L 143.883824 252.978013 
L 154.672355 264.118056 
L 166.796868 273.787034 
L 180.058282 281.82618 
L 194.238842 288.103494 
L 209.105705 292.515901 
L 224.414758 294.990949 
L 239.914625 295.488 
L 255.350801 293.998891 
L 270.469822 290.548073 
L 285.023436 285.192208 
L 298.772672 278.019241 
L 311.491768 269.14695 
L 322.971877 258.721018 
L 333.024496 246.91264 
L 341.484562 233.915708 
L 348.213159 219.943631 
L 353.099806 205.225831 
L 356.064262 190.003973 
L 357.057853 174.528 
" clip-path="url(#pfa750485a8)" style="fill: none; stroke: #000000; stroke-width: 1.5; stroke-linecap: square"/>
   </g>
   <g id="patch_3">
    <path d="M 103.172362 307.584 
L 103.172362 41.472 
" style="fill: none; stroke: #000000; stroke-width: 0.8; stroke-linejoin: miter; stroke-linecap: square"/>
   </g>
   <g id="patch_4">
    <path d="M 369.147638 307.584 
L 369.147638 41.472 
" style="fill: none; stroke: #000000; stroke-width: 0.8; stroke-linejoin: miter; stroke-linecap: square"/>
   </g>
   <g id="patch_5">
    <path d="M 103.172362 307.584 
L 369.147638 307.584 
" style="fill: none; stroke: #000000; stroke-width: 0.8; stroke-linejoin: miter; stroke-linecap: square"/>
   </g>
   <g id="patch_6">
    <path d="M 103.172362 41.472 
L 369.147638 41.472 
" style="fill: none; stroke: #000000; stroke-width: 0.8; stroke-linejoin: miter; stroke-linecap: square"/>
   </g>
  </g>
 </g>
 <defs>
  <clipPath id="pfa750485a8">
   <rect x="103.172362" y="41.472" width="265.975276" height="266.112"/>
  </clipPath>
 </defs>
</svg>
