<?xml version="1.0" encoding="utf-8" standalone="no"?>
<!DOCTYPE svg PUBLIC "-//W3C//DTD SVG 1.1//EN"
  "http://www.w3.org/Graphics/SVG/1.1/DTD/svg11.dtd">
<svg xmlns:xlink="http://www.w3.org/1999/xlink" width="460.8pt" height="345.6pt" viewBox="0 0 460.8 345.6" xmlns="http://www.w3.org/2000/svg" version="1.1">
 <metadata>
  <rdf:RDF xmlns:dc="http://purl.org/dc/elements/1.1/" xmlns:cc="http://creativecommons.org/ns#" xmlns:rdf="http://www.w3.org/1999/02/22-rdf-syntax-ns#">
   <cc:Work>
    <dc:type rdf:resource="http://purl.org/dc/dcmitype/StillImage"/>
    <dc:date>2025-03-04T09:34:34.714909</dc:date>
    <dc:format>image/svg+xml</dc:format>
    <dc:creator>
     <cc:Agent>
      <dc:title>Matplotlib v3.7.1, https://matplotlib.org/</dc:title>
     </cc:Agent>
    </dc:creator>
   </cc:Work>
  </rdf:RDF>
 </metadata>
 <defs>
  <style type="text/css">*{stroke-linejoin: round; stroke-linecap: butt}</style>
 </defs>
 <g id="figure_1">
  <g id="patch_1">
   <path d="M 0 345.6 
L 460.8 345.6 
L 460.8 0 
L 0 0 
z
" style="fill: #ffffff"/>
  </g>
  <g id="axes_1">
   <g id="patch_2">
    <path d="M 103.172362 307.584 
L 369.147638 307.584 
L 369.147638 41.472 
L 103.172362 41.472 
z
" style="fill: #ffffff"/>
   </g>
   <g id="matplotlib.axis_1">
    <g id="xtick_1">
     <g id="line2d_1">
      <defs>
       <path id="m488d7bc0b0" d="M 0 0 
L 0 3.5 
" style="stroke: #000000; stroke-width: 0.8"/>
      </defs>
      <g>
       <use xlink:href="#m488d7bc0b0" x="135.183857" y="307.584" style="stroke: #000000; stroke-width: 0.8"/>
      </g>
     </g>
     <g id="text_1">
      <!-- −1.0 -->
      <g transform="translate(123.042451 322.182437) scale(0.1 -0.1)">
       <defs>
        <path id="DejaVuSans-2212" d="M 678 2272 
L 4684 2272 
L 4684 1741 
L 678 1741 
L 678 2272 
z
" transform="scale(0.015625)"/>
        <path id="DejaVuSans-31" d="M 794 531 
L 1825 531 
L 1825 4091 
L 703 3866 
L 703 4441 
L 1819 4666 
L 2450 4666 
L 2450 531 
L 3481 531 
L 3481 0 
L 794 0 
L 794 531 
z
" transform="scale(0.015625)"/>
        <path id="DejaVuSans-2e" d="M 684 794 
L 1344 794 
L 1344 0 
L 684 0 
L 684 794 
z
" transform="scale(0.015625)"/>
        <path id="DejaVuSans-30" d="M 2034 4250 
Q 1547 4250 1301 3770 
Q 1056 3291 1056 2328 
Q 1056 1369 1301 889 
Q 1547 409 2034 409 
Q 2525 409 2770 889 
Q 3016 1369 3016 2328 
Q 3016 3291 2770 3770 
Q 2525 4250 2034 4250 
z
M 2034 4750 
Q 2819 4750 3233 4129 
Q 3647 3509 3647 2328 
Q 3647 1150 3233 529 
Q 2819 -91 2034 -91 
Q 1250 -91 836 529 
Q 422 1150 422 2328 
Q 422 3509 836 4129 
Q 1250 4750 2034 4750 
z
" transform="scale(0.015625)"/>
       </defs>
       <use xlink:href="#DejaVuSans-2212"/>
       <use xlink:href="#DejaVuSans-31" x="83.789062"/>
       <use xlink:href="#DejaVuSans-2e" x="147.412109"/>
       <use xlink:href="#DejaVuSans-30" x="179.199219"/>
      </g>
     </g>
    </g>
    <g id="xtick_2">
     <g id="line2d_2">
      <g>
       <use xlink:href="#m488d7bc0b0" x="185.609765" y="307.584" style="stroke: #000000; stroke-width: 0.8"/>
      </g>
     </g>
     <g id="text_2">
      <!-- −0.5 -->
      <g transform="translate(173.468359 322.182437) scale(0.1 -0.1)">
       <defs>
        <path id="DejaVuSans-35" d="M 691 4666 
L 3169 4666 
L 3169 4134 
L 1269 4134 
L 1269 2991 
Q 1406 3038 1543 3061 
Q 1681 3084 1819 3084 
Q 2600 3084 3056 2656 
Q 3513 2228 3513 1497 
Q 3513 744 3044 326 
Q 2575 -91 1722 -91 
Q 1428 -91 1123 -41 
Q 819 9 494 109 
L 494 744 
Q 775 591 1075 516 
Q 1375 441 1709 441 
Q 2250 441 2565 725 
Q 2881 1009 2881 1497 
Q 2881 1984 2565 2268 
Q 2250 2553 1709 2553 
Q 1456 2553 1204 2497 
Q 953 2441 691 2322 
L 691 4666 
z
" transform="scale(0.015625)"/>
       </defs>
       <use xlink:href="#DejaVuSans-2212"/>
       <use xlink:href="#DejaVuSans-30" x="83.789062"/>
       <use xlink:href="#DejaVuSans-2e" x="147.412109"/>
       <use xlink:href="#DejaVuSans-35" x="179.199219"/>
      </g>
     </g>
    </g>
    <g id="xtick_3">
     <g id="line2d_3">
      <g>
       <use xlink:href="#m488d7bc0b0" x="236.035673" y="307.584" style="stroke: #000000; stroke-width: 0.8"/>
      </g>
     </g>
     <g id="text_3">
      <!-- 0.0 -->
      <g transform="translate(228.084111 322.182437) scale(0.1 -0.1)">
       <use xlink:href="#DejaVuSans-30"/>
       <use xlink:href="#DejaVuSans-2e" x="63.623047"/>
       <use xlink:href="#DejaVuSans-30" x="95.410156"/>
      </g>
     </g>
    </g>
    <g id="xtick_4">
     <g id="line2d_4">
      <g>
       <use xlink:href="#m488d7bc0b0" x="286.461581" y="307.584" style="stroke: #000000; stroke-width: 0.8"/>
      </g>
     </g>
     <g id="text_4">
      <!-- 0.5 -->
      <g transform="translate(278.510019 322.182437) scale(0.1 -0.1)">
       <use xlink:href="#DejaVuSans-30"/>
       <use xlink:href="#DejaVuSans-2e" x="63.623047"/>
       <use xlink:href="#DejaVuSans-35" x="95.410156"/>
      </g>
     </g>
    </g>
    <g id="xtick_5">
     <g id="line2d_5">
      <g>
       <use xlink:href="#m488d7bc0b0" x="336.88749" y="307.584" style="stroke: #000000; stroke-width: 0.8"/>
      </g>
     </g>
     <g id="text_5">
      <!-- 1.0 -->
      <g transform="translate(328.935927 322.182437) scale(0.1 -0.1)">
       <use xlink:href="#DejaVuSans-31"/>
       <use xlink:href="#DejaVuSans-2e" x="63.623047"/>
       <use xlink:href="#DejaVuSans-30" x="95.410156"/>
      </g>
     </g>
    </g>
   </g>
   <g id="matplotlib.axis_2">
    <g id="ytick_1">
     <g id="line2d_6">
      <defs>
       <path id="mb12b5bef5c" d="M 0 0 
L -3.5 0 
" style="stroke: #000000; stroke-width: 0.8"/>
      </defs>
      <g>
       <use xlink:href="#mb12b5bef5c" x="103.172362" y="275.379816" style="stroke: #000000; stroke-width: 0.8"/>
      </g>
     </g>
     <g id="text_6">
      <!-- −1.0 -->
      <g transform="translate(71.88955 279.179035) scale(0.1 -0.1)">
       <use xlink:href="#DejaVuSans-2212"/>
       <use xlink:href="#DejaVuSans-31" x="83.789062"/>
       <use xlink:href="#DejaVuSans-2e" x="147.412109"/>
       <use xlink:href="#DejaVuSans-30" x="179.199219"/>
      </g>
     </g>
    </g>
    <g id="ytick_2">
     <g id="line2d_7">
      <g>
       <use xlink:href="#mb12b5bef5c" x="103.172362" y="224.953908" style="stroke: #000000; stroke-width: 0.8"/>
      </g>
     </g>
     <g id="text_7">
      <!-- −0.5 -->
      <g transform="translate(71.88955 228.753127) scale(0.1 -0.1)">
       <use xlink:href="#DejaVuSans-2212"/>
       <use xlink:href="#DejaVuSans-30" x="83.789062"/>
       <use xlink:href="#DejaVuSans-2e" x="147.412109"/>
       <use xlink:href="#DejaVuSans-35" x="179.199219"/>
      </g>
     </g>
    </g>
    <g id="ytick_3">
     <g id="line2d_8">
      <g>
       <use xlink:href="#mb12b5bef5c" x="103.172362" y="174.528" style="stroke: #000000; stroke-width: 0.8"/>
      </g>
     </g>
     <g id="text_8">
      <!-- 0.0 -->
      <g transform="translate(80.269237 178.327219) scale(0.1 -0.1)">
       <use xlink:href="#DejaVuSans-30"/>
       <use xlink:href="#DejaVuSans-2e" x="63.623047"/>
       <use xlink:href="#DejaVuSans-30" x="95.410156"/>
      </g>
     </g>
    </g>
    <g id="ytick_4">
     <g id="line2d_9">
      <g>
       <use xlink:href="#mb12b5bef5c" x="103.172362" y="124.102092" style="stroke: #000000; stroke-width: 0.8"/>
      </g>
     </g>
     <g id="text_9">
      <!-- 0.5 -->
      <g transform="translate(80.269237 127.901311) scale(0.1 -0.1)">
       <use xlink:href="#DejaVuSans-30"/>
       <use xlink:href="#DejaVuSans-2e" x="63.623047"/>
       <use xlink:href="#DejaVuSans-35" x="95.410156"/>
      </g>
     </g>
    </g>
    <g id="ytick_5">
     <g id="line2d_10">
      <g>
       <use xlink:href="#mb12b5bef5c" x="103.172362" y="73.676184" style="stroke: #000000; stroke-width: 0.8"/>
      </g>
     </g>
     <g id="text_10">
      <!-- 1.0 -->
      <g transform="translate(80.269237 77.475403) scale(0.1 -0.1)">
       <use xlink:href="#DejaVuSans-31"/>
       <use xlink:href="#DejaVuSans-2e" x="63.623047"/>
       <use xlink:href="#DejaVuSans-30" x="95.410156"/>
      </g>
     </g>
    </g>
   </g>
   <g id="line2d_11">
    <path d="M 135.183857 174.528 
L 336.88749 174.528 
" clip-path="url(#p2e187c8af9)" style="fill: none; stroke: #000000; stroke-opacity: 0.5; stroke-width: 1.5; stroke-linecap: square"/>
   </g>
   <g id="line2d_12">
    <path d="M 236.035673 275.379816 
L 236.035673 73.676184 
" clip-path="url(#p2e187c8af9)" style="fill: none; stroke: #000000; stroke-opacity: 0.5; stroke-width: 1.5; stroke-linecap: square"/>
   </g>
   <g id="line2d_13">
    <path d="M 200.737538 269.000908 
L 200.737538 209.826136 
" clip-path="url(#p2e187c8af9)" style="fill: none; stroke: #ff0000; stroke-width: 1.5; stroke-linecap: square"/>
   </g>
   <g id="line2d_14">
    <path d="M 200.737538 209.826136 
L 141.562765 209.826136 
" clip-path="url(#p2e187c8af9)" style="fill: none; stroke: #ff0000; stroke-width: 1.5; stroke-linecap: square"/>
   </g>
   <g id="line2d_15">
    <path d="M 141.562765 209.826136 
L 142.193525 211.470387 
L 142.8529 213.103374 
L 143.540688 214.724598 
L 144.256681 216.333566 
L 145.000659 217.929785 
L 145.772396 219.512771 
L 146.571657 221.082039 
L 147.398198 222.637112 
L 148.251766 224.177515 
L 149.132102 225.702779 
L 150.038937 227.212439 
L 150.971994 228.706033 
L 151.93099 230.183108 
L 152.915631 231.643211 
L 153.925618 233.085899 
L 154.960642 234.510731 
L 156.020388 235.917273 
L 157.104532 237.305096 
L 158.212745 238.673776 
L 159.344688 240.022897 
L 160.500015 241.352046 
L 161.678376 242.66082 
L 162.87941 243.948817 
L 164.102751 245.215647 
L 165.348026 246.460922 
L 166.614856 247.684264 
L 167.902854 248.885298 
L 169.211627 250.063658 
L 170.540777 251.218986 
L 171.889898 252.350929 
L 173.258578 253.459141 
L 174.646401 254.543286 
L 176.052942 255.603032 
L 177.477774 256.638056 
L 178.920462 257.648042 
L 180.380566 258.632684 
L 181.85764 259.591679 
L 183.351235 260.524737 
L 184.860894 261.431572 
L 186.386158 262.311908 
L 187.926561 263.165476 
L 189.481634 263.992016 
L 191.050903 264.791277 
L 192.633888 265.563014 
L 194.230108 266.306993 
L 195.839075 267.022985 
L 197.460299 267.710774 
L 199.093286 268.370148 
L 200.737538 269.000908 
" clip-path="url(#p2e187c8af9)" style="fill: none; stroke: #ff0000; stroke-width: 1.5; stroke-linecap: square"/>
   </g>
   <g id="line2d_16">
    <path d="M 141.562765 209.826136 
L 200.737538 209.826136 
" clip-path="url(#p2e187c8af9)" style="fill: none; stroke: #ff0000; stroke-width: 1.5; stroke-linecap: square"/>
   </g>
   <g id="line2d_17">
    <path d="M 200.737538 209.826136 
L 200.737538 139.229864 
" clip-path="url(#p2e187c8af9)" style="fill: none; stroke: #ff0000; stroke-width: 1.5; stroke-linecap: square"/>
   </g>
   <g id="line2d_18">
    <path d="M 200.737538 139.229864 
L 141.562765 139.229864 
" clip-path="url(#p2e187c8af9)" style="fill: none; stroke: #ff0000; stroke-width: 1.5; stroke-linecap: square"/>
   </g>
   <g id="line2d_19">
    <path d="M 141.562765 139.229864 
L 141.057678 140.612382 
L 140.572821 142.002124 
L 140.108298 143.398794 
L 139.664208 144.802095 
L 139.240645 146.211727 
L 138.8377 147.627391 
L 138.455458 149.048784 
L 138.094002 150.475605 
L 137.753407 151.907549 
L 137.433746 153.344311 
L 137.135088 154.785586 
L 136.857496 156.231065 
L 136.601029 157.680442 
L 136.365742 159.133408 
L 136.151684 160.589652 
L 135.958903 162.048866 
L 135.787438 163.510737 
L 135.637326 164.974955 
L 135.5086 166.441208 
L 135.401285 167.909184 
L 135.315407 169.378569 
L 135.250982 170.849052 
L 135.208024 172.320317 
L 135.186543 173.792054 
L 135.186543 175.263946 
L 135.208024 176.735683 
L 135.250982 178.206948 
L 135.315407 179.677431 
L 135.401285 181.146816 
L 135.5086 182.614792 
L 135.637326 184.081045 
L 135.787438 185.545263 
L 135.958903 187.007134 
L 136.151684 188.466348 
L 136.365742 189.922592 
L 136.601029 191.375558 
L 136.857496 192.824935 
L 137.135088 194.270414 
L 137.433746 195.711689 
L 137.753407 197.148451 
L 138.094002 198.580395 
L 138.455458 200.007216 
L 138.8377 201.428609 
L 139.240645 202.844273 
L 139.664208 204.253905 
L 140.108298 205.657206 
L 140.572821 207.053876 
L 141.057678 208.443618 
L 141.562765 209.826136 
" clip-path="url(#p2e187c8af9)" style="fill: none; stroke: #ff0000; stroke-width: 1.5; stroke-linecap: square"/>
   </g>
   <g id="line2d_20">
    <path d="M 141.562765 139.229864 
L 200.737538 139.229864 
" clip-path="url(#p2e187c8af9)" style="fill: none; stroke: #ff0000; stroke-width: 1.5; stroke-linecap: square"/>
   </g>
   <g id="line2d_21">
    <path d="M 200.737538 139.229864 
L 200.737538 80.055092 
" clip-path="url(#p2e187c8af9)" style="fill: none; stroke: #ff0000; stroke-width: 1.5; stroke-linecap: square"/>
   </g>
   <g id="line2d_22">
    <path d="M 200.737538 80.055092 
L 199.093286 80.685852 
L 197.460299 81.345226 
L 195.839075 82.033015 
L 194.230108 82.749007 
L 192.633888 83.492986 
L 191.050903 84.264723 
L 189.481634 85.063984 
L 187.926561 85.890524 
L 186.386158 86.744092 
L 184.860894 87.624428 
L 183.351235 88.531263 
L 181.85764 89.464321 
L 180.380566 90.423316 
L 178.920462 91.407958 
L 177.477774 92.417944 
L 176.052942 93.452968 
L 174.646401 94.512714 
L 173.258578 95.596859 
L 171.889898 96.705071 
L 170.540777 97.837014 
L 169.211627 98.992342 
L 167.902854 100.170702 
L 166.614856 101.371736 
L 165.348026 102.595078 
L 164.102751 103.840353 
L 162.87941 105.107183 
L 161.678376 106.39518 
L 160.500015 107.703954 
L 159.344688 109.033103 
L 158.212745 110.382224 
L 157.104532 111.750904 
L 156.020388 113.138727 
L 154.960642 114.545269 
L 153.925618 115.970101 
L 152.915631 117.412789 
L 151.93099 118.872892 
L 150.971994 120.349967 
L 150.038937 121.843561 
L 149.132102 123.353221 
L 148.251766 124.878485 
L 147.398198 126.418888 
L 146.571657 127.973961 
L 145.772396 129.543229 
L 145.000659 131.126215 
L 144.256681 132.722434 
L 143.540688 134.331402 
L 142.8529 135.952626 
L 142.193525 137.585613 
L 141.562765 139.229864 
" clip-path="url(#p2e187c8af9)" style="fill: none; stroke: #ff0000; stroke-width: 1.5; stroke-linecap: square"/>
   </g>
   <g id="line2d_23">
    <path d="M 271.333809 269.000908 
L 271.333809 209.826136 
" clip-path="url(#p2e187c8af9)" style="fill: none; stroke: #ff0000; stroke-width: 1.5; stroke-linecap: square"/>
   </g>
   <g id="line2d_24">
    <path d="M 271.333809 209.826136 
L 200.737538 209.826136 
" clip-path="url(#p2e187c8af9)" style="fill: none; stroke: #ff0000; stroke-width: 1.5; stroke-linecap: square"/>
   </g>
   <g id="line2d_25">
    <path d="M 200.737538 209.826136 
L 200.737538 269.000908 
" clip-path="url(#p2e187c8af9)" style="fill: none; stroke: #ff0000; stroke-width: 1.5; stroke-linecap: square"/>
   </g>
   <g id="line2d_26">
    <path d="M 200.737538 269.000908 
L 202.120056 269.505996 
L 203.509798 269.990852 
L 204.906468 270.455375 
L 206.309768 270.899465 
L 207.7194 271.323028 
L 209.135064 271.725973 
L 210.556458 272.108215 
L 211.983279 272.469672 
L 213.415223 272.810267 
L 214.851985 273.129928 
L 216.293259 273.428586 
L 217.738739 273.706178 
L 219.188116 273.962645 
L 220.641081 274.197932 
L 222.097326 274.411989 
L 223.556539 274.604771 
L 225.018411 274.776235 
L 226.482629 274.926347 
L 227.948882 275.055074 
L 229.416857 275.162388 
L 230.886243 275.248267 
L 232.356725 275.312692 
L 233.827991 275.35565 
L 235.299727 275.377131 
L 236.77162 275.377131 
L 238.243356 275.35565 
L 239.714622 275.312692 
L 241.185104 275.248267 
L 242.654489 275.162388 
L 244.122465 275.055074 
L 245.588718 274.926347 
L 247.052936 274.776235 
L 248.514808 274.604771 
L 249.974021 274.411989 
L 251.430266 274.197932 
L 252.883231 273.962645 
L 254.332608 273.706178 
L 255.778088 273.428586 
L 257.219362 273.129928 
L 258.656124 272.810267 
L 260.088068 272.469672 
L 261.514889 272.108215 
L 262.936283 271.725973 
L 264.351947 271.323028 
L 265.761579 270.899465 
L 267.164879 270.455375 
L 268.561549 269.990852 
L 269.951291 269.505996 
L 271.333809 269.000908 
" clip-path="url(#p2e187c8af9)" style="fill: none; stroke: #ff0000; stroke-width: 1.5; stroke-linecap: square"/>
   </g>
   <g id="line2d_27">
    <path d="M 271.333809 139.229864 
L 200.737538 139.229864 
" clip-path="url(#p2e187c8af9)" style="fill: none; stroke: #ff0000; stroke-width: 1.5; stroke-linecap: square"/>
   </g>
   <g id="line2d_28">
    <path d="M 200.737538 139.229864 
L 200.737538 209.826136 
" clip-path="url(#p2e187c8af9)" style="fill: none; stroke: #ff0000; stroke-width: 1.5; stroke-linecap: square"/>
   </g>
   <g id="line2d_29">
    <path d="M 200.737538 209.826136 
L 271.333809 209.826136 
" clip-path="url(#p2e187c8af9)" style="fill: none; stroke: #ff0000; stroke-width: 1.5; stroke-linecap: square"/>
   </g>
   <g id="line2d_30">
    <path d="M 271.333809 209.826136 
L 271.333809 139.229864 
" clip-path="url(#p2e187c8af9)" style="fill: none; stroke: #ff0000; stroke-width: 1.5; stroke-linecap: square"/>
   </g>
   <g id="line2d_31">
    <path d="M 200.737538 80.055092 
L 200.737538 139.229864 
" clip-path="url(#p2e187c8af9)" style="fill: none; stroke: #ff0000; stroke-width: 1.5; stroke-linecap: square"/>
   </g>
   <g id="line2d_32">
    <path d="M 200.737538 139.229864 
L 271.333809 139.229864 
" clip-path="url(#p2e187c8af9)" style="fill: none; stroke: #ff0000; stroke-width: 1.5; stroke-linecap: square"/>
   </g>
   <g id="line2d_33">
    <path d="M 271.333809 139.229864 
L 271.333809 80.055092 
" clip-path="url(#p2e187c8af9)" style="fill: none; stroke: #ff0000; stroke-width: 1.5; stroke-linecap: square"/>
   </g>
   <g id="line2d_34">
    <path d="M 271.333809 80.055092 
L 269.951291 79.550004 
L 268.561549 79.065148 
L 267.164879 78.600625 
L 265.761579 78.156535 
L 264.351947 77.732972 
L 262.936283 77.330027 
L 261.514889 76.947785 
L 260.088068 76.586328 
L 258.656124 76.245733 
L 257.219362 75.926072 
L 255.778088 75.627414 
L 254.332608 75.349822 
L 252.883231 75.093355 
L 251.430266 74.858068 
L 249.974021 74.644011 
L 248.514808 74.451229 
L 247.052936 74.279765 
L 245.588718 74.129653 
L 244.122465 74.000926 
L 242.654489 73.893612 
L 241.185104 73.807733 
L 239.714622 73.743308 
L 238.243356 73.70035 
L 236.77162 73.678869 
L 235.299727 73.678869 
L 233.827991 73.70035 
L 232.356725 73.743308 
L 230.886243 73.807733 
L 229.416857 73.893612 
L 227.948882 74.000926 
L 226.482629 74.129653 
L 225.018411 74.279765 
L 223.556539 74.451229 
L 222.097326 74.644011 
L 220.641081 74.858068 
L 219.188116 75.093355 
L 217.738739 75.349822 
L 216.293259 75.627414 
L 214.851985 75.926072 
L 213.415223 76.245733 
L 211.983279 76.586328 
L 210.556458 76.947785 
L 209.135064 77.330027 
L 207.7194 77.732972 
L 206.309768 78.156535 
L 204.906468 78.600625 
L 203.509798 79.065148 
L 202.120056 79.550004 
L 200.737538 80.055092 
" clip-path="url(#p2e187c8af9)" style="fill: none; stroke: #ff0000; stroke-width: 1.5; stroke-linecap: square"/>
   </g>
   <g id="line2d_35">
    <path d="M 330.508582 209.826136 
L 271.333809 209.826136 
" clip-path="url(#p2e187c8af9)" style="fill: none; stroke: #ff0000; stroke-width: 1.5; stroke-linecap: square"/>
   </g>
   <g id="line2d_36">
    <path d="M 271.333809 209.826136 
L 271.333809 269.000908 
" clip-path="url(#p2e187c8af9)" style="fill: none; stroke: #ff0000; stroke-width: 1.5; stroke-linecap: square"/>
   </g>
   <g id="line2d_37">
    <path d="M 271.333809 269.000908 
L 272.978061 268.370148 
L 274.611047 267.710774 
L 276.232272 267.022985 
L 277.841239 266.306993 
L 279.437459 265.563014 
L 281.020444 264.791277 
L 282.589713 263.992016 
L 284.144786 263.165476 
L 285.685189 262.311908 
L 287.210453 261.431572 
L 288.720112 260.524737 
L 290.213707 259.591679 
L 291.690781 258.632684 
L 293.150885 257.648042 
L 294.593573 256.638056 
L 296.018405 255.603032 
L 297.424946 254.543286 
L 298.812769 253.459141 
L 300.181449 252.350929 
L 301.53057 251.218986 
L 302.85972 250.063658 
L 304.168493 248.885298 
L 305.456491 247.684264 
L 306.723321 246.460922 
L 307.968596 245.215647 
L 309.191937 243.948817 
L 310.392971 242.66082 
L 311.571332 241.352046 
L 312.726659 240.022897 
L 313.858602 238.673776 
L 314.966815 237.305096 
L 316.050959 235.917273 
L 317.110705 234.510731 
L 318.145729 233.085899 
L 319.155716 231.643211 
L 320.140357 230.183108 
L 321.099353 228.706033 
L 322.03241 227.212439 
L 322.939245 225.702779 
L 323.819581 224.177515 
L 324.673149 222.637112 
L 325.49969 221.082039 
L 326.298951 219.512771 
L 327.070688 217.929785 
L 327.814666 216.333566 
L 328.530659 214.724598 
L 329.218447 213.103374 
L 329.877822 211.470387 
L 330.508582 209.826136 
" clip-path="url(#p2e187c8af9)" style="fill: none; stroke: #ff0000; stroke-width: 1.5; stroke-linecap: square"/>
   </g>
   <g id="line2d_38">
    <path d="M 330.508582 139.229864 
L 271.333809 139.229864 
" clip-path="url(#p2e187c8af9)" style="fill: none; stroke: #ff0000; stroke-width: 1.5; stroke-linecap: square"/>
   </g>
   <g id="line2d_39">
    <path d="M 271.333809 139.229864 
L 271.333809 209.826136 
" clip-path="url(#p2e187c8af9)" style="fill: none; stroke: #ff0000; stroke-width: 1.5; stroke-linecap: square"/>
   </g>
   <g id="line2d_40">
    <path d="M 271.333809 209.826136 
L 330.508582 209.826136 
" clip-path="url(#p2e187c8af9)" style="fill: none; stroke: #ff0000; stroke-width: 1.5; stroke-linecap: square"/>
   </g>
   <g id="line2d_41">
    <path d="M 330.508582 209.826136 
L 331.013669 208.443618 
L 331.498526 207.053876 
L 331.963049 205.657206 
L 332.407139 204.253905 
L 332.830702 202.844273 
L 333.233647 201.428609 
L 333.615889 200.007216 
L 333.977345 198.580395 
L 334.31794 197.148451 
L 334.637601 195.711689 
L 334.936259 194.270414 
L 335.213851 192.824935 
L 335.470318 191.375558 
L 335.705605 189.922592 
L 335.919662 188.466348 
L 336.112444 187.007134 
L 336.283909 185.545263 
L 336.434021 184.081045 
L 336.562747 182.614792 
L 336.670062 181.146816 
L 336.75594 179.677431 
L 336.820365 178.206948 
L 336.863323 176.735683 
L 336.884804 175.263946 
L 336.884804 173.792054 
L 336.863323 172.320317 
L 336.820365 170.849052 
L 336.75594 169.378569 
L 336.670062 167.909184 
L 336.562747 166.441208 
L 336.434021 164.974955 
L 336.283909 163.510737 
L 336.112444 162.048866 
L 335.919662 160.589652 
L 335.705605 159.133408 
L 335.470318 157.680442 
L 335.213851 156.231065 
L 334.936259 154.785586 
L 334.637601 153.344311 
L 334.31794 151.907549 
L 333.977345 150.475605 
L 333.615889 149.048784 
L 333.233647 147.627391 
L 332.830702 146.211727 
L 332.407139 144.802095 
L 331.963049 143.398794 
L 331.498526 142.002124 
L 331.013669 140.612382 
L 330.508582 139.229864 
" clip-path="url(#p2e187c8af9)" style="fill: none; stroke: #ff0000; stroke-width: 1.5; stroke-linecap: square"/>
   </g>
   <g id="line2d_42">
    <path d="M 271.333809 80.055092 
L 271.333809 139.229864 
" clip-path="url(#p2e187c8af9)" style="fill: none; stroke: #ff0000; stroke-width: 1.5; stroke-linecap: square"/>
   </g>
   <g id="line2d_43">
    <path d="M 271.333809 139.229864 
L 330.508582 139.229864 
" clip-path="url(#p2e187c8af9)" style="fill: none; stroke: #ff0000; stroke-width: 1.5; stroke-linecap: square"/>
   </g>
   <g id="line2d_44">
    <path d="M 330.508582 139.229864 
L 329.877822 137.585613 
L 329.218447 135.952626 
L 328.530659 134.331402 
L 327.814666 132.722434 
L 327.070688 131.126215 
L 326.298951 129.543229 
L 325.49969 127.973961 
L 324.673149 126.418888 
L 323.819581 124.878485 
L 322.939245 123.353221 
L 322.03241 121.843561 
L 321.099353 120.349967 
L 320.140357 118.872892 
L 319.155716 117.412789 
L 318.145729 115.970101 
L 317.110705 114.545269 
L 316.050959 113.138727 
L 314.966815 111.750904 
L 313.858602 110.382224 
L 312.726659 109.033103 
L 311.571332 107.703954 
L 310.392971 106.39518 
L 309.191937 105.107183 
L 307.968596 103.840353 
L 306.723321 102.595078 
L 305.456491 101.371736 
L 304.168493 100.170702 
L 302.85972 98.992342 
L 301.53057 97.837014 
L 300.181449 96.705071 
L 298.812769 95.596859 
L 297.424946 94.512714 
L 296.018405 93.452968 
L 294.593573 92.417944 
L 293.150885 91.407958 
L 291.690781 90.423316 
L 290.213707 89.464321 
L 288.720112 88.531263 
L 287.210453 87.624428 
L 285.685189 86.744092 
L 284.144786 85.890524 
L 282.589713 85.063984 
L 281.020444 84.264723 
L 279.437459 83.492986 
L 277.841239 82.749007 
L 276.232272 82.033015 
L 274.611047 81.345226 
L 272.978061 80.685852 
L 271.333809 80.055092 
" clip-path="url(#p2e187c8af9)" style="fill: none; stroke: #ff0000; stroke-width: 1.5; stroke-linecap: square"/>
   </g>
   <g id="line2d_45">
    <path d="M 336.88749 174.528 
L 336.059497 161.631356 
L 333.589117 148.946475 
L 329.516912 136.681641 
L 323.909747 125.038244 
L 316.859693 114.207467 
L 308.48251 104.367151 
L 298.915752 95.678875 
L 288.316505 88.285299 
L 276.858809 82.307826 
L 264.730797 77.844606 
L 252.131613 74.968924 
L 239.268133 73.728 
L 226.351577 74.142209 
L 213.594033 76.20475 
L 201.204981 79.881755 
L 189.387847 85.11285 
L 178.336669 91.812139 
L 168.232908 99.86962 
L 159.242466 109.152989 
L 151.512966 119.509815 
L 145.171327 130.770037 
L 140.321678 142.748764 
L 137.04365 155.249305 
L 135.391068 168.066402 
L 135.391068 180.989598 
L 137.04365 193.806695 
L 140.321678 206.307236 
L 145.171327 218.285963 
L 151.512966 229.546185 
L 159.242466 239.903011 
L 168.232908 249.18638 
L 178.336669 257.243861 
L 189.387847 263.94315 
L 201.204981 269.174245 
L 213.594033 272.85125 
L 226.351577 274.913791 
L 239.268133 275.328 
L 252.131613 274.087076 
L 264.730797 271.211394 
L 276.858809 266.748174 
L 288.316505 260.770701 
L 298.915752 253.377125 
L 308.48251 244.688849 
L 316.859693 234.848533 
L 323.909747 224.017756 
L 329.516912 212.374359 
L 333.589117 200.109525 
L 336.059497 187.424644 
L 336.88749 174.528 
" clip-path="url(#p2e187c8af9)" style="fill: none; stroke: #000000; stroke-width: 1.5; stroke-linecap: square"/>
   </g>
   <g id="line2d_46">
    <path d="M 357.057853 174.528 
L 356.064262 159.052027 
L 353.099806 143.830169 
L 348.213159 129.112369 
L 341.484562 115.140292 
L 333.024496 102.14336 
L 322.971877 90.334982 
L 311.491768 79.90905 
L 298.772672 71.036759 
L 285.023436 63.863792 
L 270.469822 58.507927 
L 255.350801 55.057109 
L 239.914625 53.568 
L 224.414758 54.065051 
L 209.105705 56.540099 
L 194.238842 60.952506 
L 180.058282 67.22982 
L 166.796868 75.268966 
L 154.672355 84.937944 
L 143.883824 96.077987 
L 134.608425 108.506177 
L 126.998458 122.018444 
L 121.178879 136.392917 
L 117.245245 151.393566 
L 115.262147 166.774082 
L 115.262147 182.281918 
L 117.245245 197.662434 
L 121.178879 212.663083 
L 126.998458 227.037556 
L 134.608425 240.549823 
L 143.883824 252.978013 
L 154.672355 264.118056 
L 166.796868 273.787034 
L 180.058282 281.82618 
L 194.238842 288.103494 
L 209.105705 292.515901 
L 224.414758 294.990949 
L 239.914625 295.488 
L 255.350801 293.998891 
L 270.469822 290.548073 
L 285.023436 285.192208 
L 298.772672 278.019241 
L 311.491768 269.14695 
L 322.971877 258.721018 
L 333.024496 246.91264 
L 341.484562 233.915708 
L 348.213159 219.943631 
L 353.099806 205.225831 
L 356.064262 190.003973 
L 357.057853 174.528 
" clip-path="url(#p2e187c8af9)" style="fill: none; stroke: #000000; stroke-width: 1.5; stroke-linecap: square"/>
   </g>
   <g id="patch_3">
    <path d="M 103.172362 307.584 
L 103.172362 41.472 
" style="fill: none; stroke: #000000; stroke-width: 0.8; stroke-linejoin: miter; stroke-linecap: square"/>
   </g>
   <g id="patch_4">
    <path d="M 369.147638 307.584 
L 369.147638 41.472 
" style="fill: none; stroke: #000000; stroke-width: 0.8; stroke-linejoin: miter; stroke-linecap: square"/>
   </g>
   <g id="patch_5">
    <path d="M 103.172362 307.584 
L 369.147638 307.584 
" style="fill: none; stroke: #000000; stroke-width: 0.8; stroke-linejoin: miter; stroke-linecap: square"/>
   </g>
   <g id="patch_6">
    <path d="M 103.172362 41.472 
L 369.147638 41.472 
" style="fill: none; stroke: #000000; stroke-width: 0.8; stroke-linejoin: miter; stroke-linecap: square"/>
   </g>
  </g>
 </g>
 <defs>
  <clipPath id="p2e187c8af9">
   <rect x="103.172362" y="41.472" width="265.975276" height="266.112"/>
  </clipPath>
 </defs>
</svg>
